<?xml version="1.0" standalone="no"?>
<!DOCTYPE svg PUBLIC "-//W3C//DTD SVG 20010904//EN"
 "http://www.w3.org/TR/2001/REC-SVG-20010904/DTD/svg10.dtd">
<svg version="1.0" xmlns="http://www.w3.org/2000/svg"
 width="512.000000pt" height="512.000000pt" viewBox="0 0 512.000000 512.000000"
 preserveAspectRatio="xMidYMid meet">
<metadata>
Created by potrace 1.11, written by Peter Selinger 2001-2013
</metadata>
<g transform="translate(0.000000,512.000000) scale(0.100000,-0.100000)"
fill="#000000" stroke="none">
<path d="M2383 4990 c-34 -3 -64 -8 -67 -11 -3 -3 -9 -33 -12 -67 -4 -34 -10
-60 -13 -58 -3 2 -6 -17 -7 -42 0 -42 -9 -118 -14 -132 -1 -3 -2 -20 -2 -38 0
-18 -3 -30 -7 -28 -4 3 -5 -8 -3 -25 3 -20 0 -29 -9 -29 -12 0 -12 -2 0 -9 13
-8 -7 -14 -114 -35 -46 -9 -149 -38 -217 -61 -40 -14 -76 -25 -80 -25 -4 0
-27 26 -50 58 -24 31 -45 59 -48 62 -3 3 -17 21 -30 40 -13 19 -29 40 -35 46
-5 6 -32 41 -60 77 -27 37 -54 67 -58 67 -16 0 -227 -115 -320 -176 -94 -61
-99 -66 -92 -92 5 -15 8 -37 8 -49 1 -12 3 -20 6 -17 4 4 51 -89 55 -111 1 -5
7 -20 14 -32 24 -43 33 -75 19 -67 -6 4 -2 -3 11 -15 12 -12 20 -27 16 -33 -4
-6 -2 -13 3 -17 6 -3 13 -17 16 -31 5 -21 0 -31 -30 -55 l-36 -29 -37 42 c-37
41 -59 109 -44 134 4 6 3 8 -2 5 -5 -3 -15 25 -22 61 -7 37 -21 74 -30 83 -9
9 -102 74 -207 145 -104 70 -230 155 -280 189 -49 33 -102 68 -117 78 l-27 17
-76 -76 c-71 -72 -75 -78 -59 -95 9 -10 13 -22 10 -28 -4 -6 2 -16 14 -23 11
-7 20 -19 20 -27 0 -11 -3 -11 -17 0 -10 7 -7 1 6 -14 25 -28 43 -38 21 -12
-7 8 -8 15 -3 15 5 0 16 -12 24 -27 8 -16 20 -33 28 -39 12 -9 11 -13 -5 -23
-18 -11 -17 -12 4 -6 24 7 29 -4 9 -25 -10 -12 -9 -12 4 -2 13 9 19 6 37 -18
13 -16 19 -36 16 -45 -5 -12 -2 -16 9 -13 9 2 16 -1 15 -6 0 -5 6 -12 13 -17
11 -6 10 -9 -4 -15 -9 -3 -17 -10 -17 -16 0 -5 4 -7 9 -3 5 3 12 1 16 -4 3 -6
13 -7 22 -4 10 4 14 2 10 -4 -4 -6 0 -14 8 -17 8 -3 14 -9 13 -13 -2 -4 5 -19
15 -33 129 -176 166 -234 155 -247 -6 -7 -8 -16 -4 -20 3 -3 6 0 6 7 0 9 5 7
16 -6 8 -10 13 -13 9 -6 -3 7 -8 23 -11 37 -4 21 -1 24 18 21 13 -3 25 -5 28
-6 3 -2 9 -2 14 -1 5 1 1 -10 -8 -24 -23 -35 -10 -52 18 -26 12 12 25 18 29
15 4 -4 -1 -13 -11 -20 -15 -12 -14 -13 8 -10 32 3 50 14 50 29 0 6 -7 2 -15
-9 -15 -19 -16 -19 -13 1 4 26 -21 27 -49 1 -13 -11 -23 -15 -23 -9 0 22 36
42 65 36 17 -3 40 -6 52 -6 12 -1 19 -5 16 -10 -3 -5 4 -6 16 -2 11 3 21 2 21
-3 0 -12 -32 -12 -48 1 -8 6 -12 6 -12 -2 0 -6 6 -12 13 -13 6 0 17 -2 22 -2
21 -3 34 -17 29 -31 -4 -8 -11 -12 -17 -8 -6 4 -7 1 -2 -7 6 -10 11 -9 21 5
10 14 11 22 3 32 -22 26 5 12 33 -18 24 -24 27 -33 17 -45 -10 -12 -13 -12
-23 2 -11 14 -13 14 -27 -3 -13 -16 -12 -17 2 -5 24 18 35 -15 13 -39 -14 -16
-20 -17 -43 -5 -14 8 -60 27 -103 44 -42 17 -96 39 -120 50 -23 10 -69 30
-102 43 l-58 24 -24 -30 c-19 -24 -105 -163 -175 -285 -45 -79 -55 -140 -23
-140 8 0 18 -10 23 -22 5 -13 11 -22 15 -20 14 5 26 1 26 -9 0 -8 -4 -8 -13
-1 -10 8 -13 6 -14 -11 -2 -17 0 -19 7 -7 9 13 10 13 11 0 1 -8 1 -19 0 -23
-1 -5 3 -6 8 -2 6 3 8 12 5 19 -3 8 0 17 6 21 6 3 9 1 8 -6 -2 -7 3 -13 10
-14 15 0 20 -11 8 -22 -5 -5 -6 -2 -1 7 6 12 5 13 -6 2 -11 -10 -9 -15 11 -29
14 -10 31 -18 38 -20 24 -3 51 -34 45 -51 -5 -10 -3 -13 6 -8 7 5 10 14 7 22
-3 8 -1 14 4 14 6 0 10 -4 10 -10 0 -5 7 -10 15 -10 8 0 15 -5 15 -11 0 -5 4
-8 9 -4 6 3 15 -4 21 -15 6 -11 14 -19 18 -16 4 2 13 -2 19 -10 8 -8 9 -15 3
-19 -6 -3 -10 -1 -10 6 0 7 -3 10 -6 6 -3 -3 -1 -13 4 -23 7 -12 5 -30 -5 -58
-21 -60 -72 -257 -77 -302 -5 -36 -14 -42 -78 -49 -35 -4 -70 -8 -78 -10 -8
-1 -42 -6 -75 -10 -32 -4 -68 -9 -79 -11 -11 -2 -44 -6 -75 -9 -30 -3 -59 -11
-63 -18 -4 -6 -8 -34 -9 -62 -2 -62 -5 -98 -8 -107 -6 -17 -5 -54 2 -65 4 -6
2 -15 -4 -19 -8 -4 -7 -9 2 -15 12 -7 12 -9 0 -9 -11 0 -11 -3 -1 -15 10 -12
10 -15 0 -15 -9 0 -9 -4 1 -17 8 -9 9 -14 3 -10 -6 3 -11 0 -11 -8 0 -8 3 -12
7 -10 4 2 8 -18 9 -45 1 -33 -3 -50 -11 -50 -6 0 -3 -7 8 -15 15 -11 16 -15 4
-16 -8 0 -1 -5 15 -9 17 -4 39 -11 49 -15 15 -7 17 -5 11 6 -7 11 -6 12 6 3 8
-6 22 -10 32 -9 9 2 15 -1 11 -6 -3 -5 -9 -7 -13 -5 -4 3 -13 -4 -20 -16 -7
-11 -8 -17 -3 -14 6 3 12 3 15 -1 2 -5 2 -2 1 5 -2 6 4 12 12 12 9 0 12 -5 8
-12 -4 -7 -3 -8 5 -4 6 4 9 11 7 15 -3 4 0 13 6 21 8 12 9 12 4 -2 -3 -10 0
-18 6 -18 9 0 9 -3 0 -12 -7 -7 -12 -17 -12 -22 0 -6 7 0 16 12 8 12 20 20 25
16 6 -3 3 -12 -8 -20 -17 -13 -17 -14 1 -7 13 4 17 3 12 -5 -3 -6 -2 -13 3
-17 6 -3 8 3 6 15 -2 11 1 22 6 25 15 10 0 24 -21 20 -11 -2 -20 0 -20 5 0 9
48 8 65 -1 6 -3 24 -5 42 -4 26 1 30 -2 21 -13 -9 -10 -13 -11 -20 0 -7 10 -9
10 -5 -2 2 -8 0 -24 -5 -35 -7 -14 -4 -13 11 5 l20 25 16 -22 c9 -13 20 -23
26 -23 5 0 0 9 -11 20 -12 12 -18 26 -14 32 5 8 11 4 17 -11 6 -12 16 -20 23
-17 17 7 28 -11 12 -18 -7 -3 -4 -4 7 -3 11 1 19 -3 18 -8 -1 -6 7 -11 18 -11
19 0 19 1 -1 16 -14 11 -17 19 -10 26 7 7 2 10 -17 10 -15 -1 -29 4 -30 9 -3
11 16 14 32 6 6 -3 21 -7 35 -7 41 -3 42 -3 36 -19 -3 -8 -1 -15 4 -15 6 0 10
-8 10 -17 0 -15 -2 -14 -14 2 -8 11 -12 23 -10 27 5 8 -24 4 -31 -5 -3 -4 -2
-5 1 -2 10 7 35 -23 39 -47 3 -13 11 -28 19 -34 12 -9 12 -12 -2 -22 -15 -10
-15 -11 1 -5 13 4 18 1 16 -8 -1 -8 0 -21 3 -29 24 -66 38 -134 33 -153 -5
-16 -4 -18 3 -8 8 11 13 4 23 -30 17 -62 18 -70 8 -63 -5 3 -9 2 -9 -3 0 -4
-74 -64 -164 -132 -142 -109 -163 -128 -162 -152 1 -15 4 -25 8 -23 10 6 20
-34 12 -48 -4 -7 -4 -10 1 -6 5 5 17 -6 27 -22 17 -30 26 -59 9 -32 -6 11 -10
10 -15 -4 -4 -10 -4 -15 0 -12 13 13 46 -13 41 -32 -4 -14 -1 -17 12 -12 14 5
14 3 3 -10 -10 -13 -10 -18 -1 -24 8 -4 9 -3 5 4 -4 7 -3 12 3 12 13 0 22 -15
14 -24 -11 -10 -12 -37 -2 -30 5 3 6 10 3 16 -5 7 -2 8 5 4 7 -5 10 -15 7 -23
-5 -11 -2 -13 10 -9 12 5 14 1 8 -17 -3 -12 -3 -19 1 -15 4 4 13 1 20 -5 10
-9 10 -17 2 -32 -9 -18 -9 -19 7 -6 15 12 17 12 14 0 -2 -8 3 -13 12 -11 11 3
10 -1 -3 -16 -19 -21 -14 -30 23 -37 14 -3 18 0 14 8 -4 7 -4 9 1 5 4 -4 17
-3 28 3 14 8 18 8 13 0 -4 -6 -2 -11 5 -11 7 0 5 -8 -6 -20 -10 -11 -14 -20
-9 -19 5 0 20 14 34 32 13 18 18 26 9 20 -13 -10 -16 -10 -16 2 0 8 4 12 8 10
3 -3 12 2 19 10 7 8 17 12 22 9 5 -3 18 2 28 11 10 9 24 14 29 10 6 -3 11 -1
11 4 0 6 3 10 8 9 4 -1 22 6 40 15 17 10 32 15 32 12 0 -3 11 2 25 11 14 9 25
13 25 9 0 -5 8 -1 18 7 14 12 35 16 45 8 8 -7 49 -5 54 3 3 6 1 7 -5 3 -7 -4
-12 -2 -12 5 0 8 -4 8 -15 -1 -9 -7 -15 -8 -15 -2 0 22 31 20 60 -5 20 -17 30
-33 27 -44 -3 -12 0 -16 9 -12 8 3 17 -2 20 -11 3 -9 11 -13 17 -9 6 3 7 1 3
-5 -4 -7 -3 -12 3 -12 6 0 7 -7 4 -17 -4 -11 -3 -14 6 -9 15 10 53 -22 44 -37
-4 -7 0 -8 12 -3 15 5 16 4 5 -9 -7 -8 -9 -15 -5 -15 4 0 2 -6 -4 -14 -8 -10
-9 -16 -1 -21 6 -4 9 -1 8 5 -5 19 36 21 50 3 6 -9 12 -13 12 -8 0 5 9 -1 20
-13 17 -18 19 -26 10 -42 -6 -11 -7 -20 -2 -20 6 0 12 9 15 21 3 12 10 18 15
15 19 -12 7 -48 -98 -296 -39 -93 -62 -156 -54 -147 6 6 17 -1 59 -40 13 -13
29 -23 35 -23 6 0 8 -5 5 -11 -5 -7 -15 -3 -30 11 -19 18 -27 20 -42 11 -13
-8 -14 -11 -3 -10 30 3 41 -1 34 -13 -4 -7 -3 -8 5 -4 6 4 14 0 17 -8 5 -14 8
-14 21 -1 19 19 33 19 33 0 0 -14 12 -19 33 -16 4 0 7 -4 7 -9 0 -5 4 -9 9 -7
8 2 11 -3 11 -19 0 -4 -7 -1 -15 6 -10 9 -15 9 -15 1 0 -6 5 -11 11 -11 5 0 7
-5 3 -11 -3 -6 6 -3 22 7 19 13 25 14 19 5 -6 -11 -4 -13 8 -8 13 5 15 0 12
-24 -3 -23 0 -29 10 -25 14 5 32 -10 35 -29 1 -5 4 -12 7 -15 4 -3 3 1 -1 8
-4 7 -1 12 8 12 9 0 16 5 16 11 0 5 -5 7 -12 3 -7 -4 -8 -3 -4 4 4 7 2 10 -6
7 -7 -2 -22 2 -32 10 -15 12 -17 18 -8 27 9 9 13 7 18 -5 3 -9 10 -15 14 -12
5 3 16 -2 24 -11 9 -8 16 -12 16 -8 0 3 6 1 13 -5 8 -6 17 -8 20 -4 4 3 7 2 7
-4 0 -6 11 -14 25 -17 14 -4 30 -17 36 -29 l10 -22 -5 23 c-3 15 4 28 20 41
14 11 25 22 25 25 -2 20 0 26 10 26 8 0 8 -5 -1 -15 -9 -10 -9 -15 -1 -15 9 0
15 14 9 23 -1 1 4 13 11 26 9 17 16 20 24 12 6 -6 15 -11 20 -11 5 0 1 7 -7
16 -17 16 -13 34 7 34 8 0 8 -3 -2 -9 -9 -6 -10 -11 -2 -15 11 -7 15 6 12 32
-3 16 17 42 32 42 6 0 3 -6 -6 -13 -15 -11 -16 -15 -4 -31 11 -15 16 -16 22
-6 5 8 4 11 -3 6 -20 -12 -19 18 1 35 16 12 17 18 7 24 -9 6 -11 4 -5 -5 6 -9
4 -11 -4 -6 -11 7 2 33 30 56 3 3 10 12 15 21 5 9 21 31 37 49 21 24 31 29 41
21 7 -6 16 -7 20 -3 4 4 7 2 6 -3 -5 -22 1 -27 15 -15 12 10 15 10 15 0 0 -7
7 -10 15 -6 18 6 41 -29 25 -39 -9 -5 -14 6 -12 25 0 3 -8 6 -18 6 -10 0 -16
-5 -13 -10 4 -5 -1 -7 -10 -3 -9 3 -19 1 -23 -6 -4 -7 -4 -9 1 -5 4 4 17 3 28
-3 14 -8 18 -8 13 0 -13 21 5 11 31 -16 14 -16 20 -21 14 -12 -6 9 -7 19 -3
23 4 4 7 12 7 17 0 5 5 8 10 7 6 -2 9 -7 7 -12 -2 -5 4 -6 13 -2 11 4 15 2 12
-6 -2 -7 -13 -11 -23 -10 -15 3 -16 1 -7 -9 10 -10 15 -9 28 1 8 7 19 10 22 6
4 -4 1 -12 -7 -17 -12 -9 -12 -10 3 -5 10 3 17 0 17 -7 0 -7 3 -8 8 -2 4 6 16
11 27 13 20 3 20 2 1 -13 -11 -8 -15 -15 -9 -15 7 0 21 12 32 26 12 15 21 22
21 17 0 -6 10 -10 22 -9 11 0 23 -6 25 -14 4 -13 3 -13 -7 0 -10 13 -11 13 -7
0 2 -8 9 -14 15 -13 6 2 9 -4 6 -12 -4 -8 -1 -15 4 -15 6 0 9 14 7 33 -3 23
-2 28 5 17 5 -8 10 -11 10 -6 0 5 6 4 13 -1 6 -6 19 -9 28 -8 11 2 16 -3 14
-14 -2 -9 -4 -18 -4 -20 -1 -2 -10 4 -20 13 -12 11 -21 14 -26 7 -3 -6 -4 -12
-1 -12 34 -8 56 -21 50 -30 -3 -5 -1 -9 3 -9 5 0 10 -11 11 -26 1 -18 -2 -23
-11 -18 -8 5 -8 2 2 -9 7 -9 15 -41 17 -69 1 -29 3 -53 4 -53 4 0 11 -44 14
-85 2 -25 5 -45 6 -45 1 0 10 -51 12 -72 1 -6 8 -9 16 -5 10 3 13 1 8 -6 -4
-7 -2 -12 3 -12 6 0 11 4 11 9 0 4 24 7 53 6 28 -2 52 -4 52 -5 0 -2 10 -4 23
-5 12 -1 22 3 22 9 0 6 4 5 9 -2 11 -17 21 -17 32 0 7 10 9 10 9 1 0 -7 5 -13
11 -13 5 0 7 5 3 12 -5 7 -3 8 7 2 21 -13 38 -14 45 -2 4 6 9 6 14 -2 5 -7 13
-9 21 -4 7 4 40 9 73 10 71 3 92 7 103 19 4 4 2 5 -6 0 -12 -7 -13 -2 -7 26 4
19 9 56 12 83 2 27 10 56 17 65 10 12 9 13 -2 7 -10 -6 -12 -4 -7 10 3 11 7
34 8 51 1 18 5 33 8 33 3 0 5 20 4 45 0 25 3 48 7 51 4 2 6 15 3 29 -5 27 8
38 46 41 14 0 32 3 40 5 9 2 14 -2 12 -11 -2 -13 0 -12 10 1 17 21 58 34 58
19 0 -6 -5 -8 -12 -4 -9 5 -9 2 1 -9 15 -19 2 -24 -16 -6 -7 7 -14 2 -21 -21
-7 -18 -7 -28 -2 -25 6 4 10 13 10 21 0 8 5 14 11 14 5 0 7 -4 4 -10 -3 -5 10
-3 28 5 19 8 36 12 39 10 2 -2 4 5 5 16 2 17 0 18 -13 4 -9 -8 -21 -15 -27
-15 -7 0 -4 7 5 14 10 7 15 16 11 19 -12 13 23 7 36 -5 11 -11 13 -10 7 0 -7
11 4 20 36 26 7 2 21 6 30 10 9 4 22 5 28 1 5 -3 10 -2 10 4 0 6 7 7 17 4 12
-5 14 -3 8 8 -4 8 -5 11 0 7 4 -4 15 -2 23 4 22 19 38 18 53 -5 8 -11 22 -28
31 -38 9 -9 14 -20 11 -22 -2 -3 5 -11 17 -17 21 -11 21 -12 4 -38 -17 -27
-17 -27 3 -9 14 12 23 15 28 8 3 -6 3 -11 0 -11 -3 0 6 -12 20 -27 45 -48 52
-58 59 -77 3 -10 1 -26 -6 -34 -9 -11 -9 -14 -1 -9 6 4 14 3 18 -3 3 -5 12
-10 18 -10 7 0 4 5 -6 11 -9 6 -15 15 -11 20 6 11 41 -30 36 -43 -1 -5 3 -8 8
-8 5 0 9 -5 7 -11 -1 -6 8 -13 21 -15 14 -3 21 0 17 6 -4 6 -3 10 2 9 4 -1 11
0 16 1 4 1 10 3 15 4 4 1 17 7 30 14 12 7 22 9 22 5 0 -4 7 2 15 13 8 10 15
15 15 9 0 -5 5 -3 11 5 9 13 10 13 6 0 -2 -8 -10 -14 -16 -12 -7 1 -10 -2 -6
-8 6 -9 -7 -14 -27 -11 -5 0 -8 -4 -8 -9 0 -16 14 -12 50 15 19 14 30 25 25
25 -4 0 0 9 10 20 10 12 24 19 31 16 7 -3 14 -2 16 2 7 16 79 63 88 57 6 -3
10 -2 10 4 0 5 9 9 20 8 12 -1 18 -7 16 -14 -11 -26 4 -12 19 20 10 19 11 26
3 17 -7 -8 -20 -16 -28 -18 -10 -2 -7 4 7 17 12 12 26 21 30 21 5 0 16 8 24
18 14 17 10 32 -57 190 -39 95 -70 172 -68 172 3 0 -2 10 -9 23 -8 12 -13 28
-12 35 2 6 3 17 4 23 1 7 12 5 29 -6 26 -18 27 -18 10 1 -15 18 -14 21 28 61
24 23 44 37 44 32 0 -6 5 -7 10 -4 5 3 10 1 10 -6 0 -7 3 -9 6 -6 4 4 2 13 -4
20 -9 10 -7 17 8 29 10 9 21 14 24 11 6 -6 10 12 7 29 0 5 5 7 12 5 6 -1 11 4
9 11 -1 8 2 11 7 8 5 -4 12 3 16 13 3 11 15 23 26 26 10 4 17 10 14 15 -3 5 4
14 15 20 11 6 18 14 16 18 -3 5 4 9 15 9 10 1 19 -3 19 -8 0 -6 4 -8 9 -5 5 3
14 -1 21 -10 10 -11 10 -18 2 -26 -7 -7 -12 -16 -12 -21 0 -4 12 5 26 20 19
20 24 23 20 9 -5 -15 -4 -17 7 -8 10 9 19 8 35 -4 12 -8 26 -13 31 -9 5 3 12
1 15 -3 3 -5 -5 -9 -17 -8 -21 2 -37 -10 -37 -26 0 -5 5 -8 11 -8 5 0 8 4 5 9
-3 5 10 11 30 13 37 4 53 -7 36 -24 -6 -6 -12 -6 -16 1 -4 6 -12 11 -19 11 -6
0 -2 -6 9 -14 15 -11 22 -12 33 -3 12 10 14 9 9 -4 -3 -9 -2 -22 3 -30 5 -8 9
-9 10 -4 0 6 2 18 4 28 2 9 -1 17 -6 17 -5 0 -9 5 -9 11 0 8 5 8 15 -1 8 -7
15 -9 15 -5 0 5 9 0 20 -10 11 -10 20 -14 20 -9 0 5 7 0 15 -10 8 -11 15 -14
15 -8 0 9 8 7 25 -4 14 -9 25 -13 25 -8 0 4 11 -3 26 -17 18 -17 23 -19 18 -6
-10 27 13 49 40 36 21 -10 21 -10 1 6 -19 15 -19 17 -2 26 10 6 14 15 10 22
-4 7 2 5 12 -3 17 -14 18 -14 8 4 -8 15 -7 23 2 33 19 18 30 16 15 -2 -7 -9
-10 -18 -6 -22 3 -3 6 -1 6 6 0 7 4 10 8 7 4 -2 9 4 9 15 1 10 -3 19 -8 19 -6
0 -7 5 -4 10 4 6 10 8 14 6 4 -3 8 5 8 16 1 12 8 25 15 29 7 5 14 13 14 19 1
5 2 15 3 21 0 5 6 7 12 4 6 -4 9 0 7 11 -2 12 3 19 13 18 9 -1 16 5 16 12 0 7
-5 10 -10 7 -5 -3 -7 0 -5 8 3 8 14 13 24 11 15 -2 16 -1 5 7 -12 8 -11 17 8
56 12 26 21 51 19 55 -2 4 -81 67 -175 140 -160 122 -190 150 -163 150 6 0 10
6 8 13 -4 23 13 58 25 50 7 -4 5 2 -3 12 -14 17 -13 18 10 12 23 -6 24 -5 7 8
-15 11 -16 17 -7 34 6 12 7 21 3 21 -4 0 2 7 13 15 14 10 15 14 5 15 -11 0
-12 3 -4 11 6 6 9 18 6 27 -5 11 -3 13 7 7 9 -5 11 -4 6 4 -4 6 -2 19 6 28 7
10 8 14 1 10 -8 -5 -8 7 2 43 7 28 14 53 14 55 1 3 2 7 2 10 1 3 2 11 3 17 1
8 17 13 41 14 23 0 47 4 54 9 10 5 12 4 7 -3 -4 -7 -3 -12 3 -12 5 0 13 5 16
10 4 6 11 8 16 5 5 -4 9 -2 9 4 0 5 18 8 40 6 22 -2 43 1 46 6 8 13 25 0 18
-14 -3 -7 1 -4 9 6 8 10 19 17 23 16 5 -1 11 0 14 1 21 8 37 6 37 -5 0 -7 -11
-11 -28 -10 -18 2 -26 -1 -22 -8 3 -6 1 -7 -5 -3 -7 4 -12 2 -12 -3 0 -13 13
-14 24 -4 12 13 30 10 44 -7 10 -13 11 -12 5 5 -6 18 -5 19 12 5 13 -10 16
-11 11 -2 -5 9 -3 13 5 11 26 -3 37 1 43 17 6 14 4 15 -10 3 -20 -17 -54 -19
-54 -4 0 8 10 10 26 7 17 -3 25 -1 21 5 -4 6 5 10 21 9 16 0 26 4 25 12 -2 7
0 12 5 12 4 0 6 19 4 41 -3 28 0 44 9 50 11 7 11 9 1 9 -9 0 -10 5 -2 19 7 14
7 22 0 26 -8 5 -8 11 0 20 8 10 7 14 -2 18 -10 4 -10 6 1 6 11 1 11 4 1 16 -9
11 -9 15 -1 15 8 0 9 5 2 17 -5 9 -6 26 -2 37 6 20 6 41 1 59 -6 19 -8 30 -9
75 -2 62 -9 70 -61 76 -41 5 -66 8 -165 21 -16 2 -72 9 -123 16 -101 13 -110
19 -114 80 -1 19 -5 39 -8 44 -4 6 -7 24 -6 42 0 17 -2 29 -6 27 -10 -7 -21
63 -12 77 4 8 3 10 -4 5 -16 -10 -15 16 1 34 10 12 9 12 -5 1 -14 -10 -17 -9
-20 6 -6 27 3 54 15 46 7 -4 8 0 3 12 -5 14 -4 16 7 6 12 -9 14 -6 12 14 -2
14 1 23 6 19 5 -3 6 -10 3 -16 -4 -6 -2 -8 4 -4 6 3 9 15 7 25 -2 11 6 28 17
38 12 10 18 12 14 6 -4 -7 -5 -13 -2 -13 3 0 10 10 17 21 7 15 8 19 0 15 -7
-5 -9 -1 -5 8 3 9 10 13 16 10 5 -3 8 0 7 7 -6 29 19 57 48 52 26 -3 26 -3 6
6 -13 6 -23 13 -23 16 0 4 4 4 9 1 5 -4 12 0 14 6 4 10 6 10 6 1 1 -7 6 -13
12 -13 5 0 7 5 4 10 -4 6 4 22 18 36 18 18 27 21 33 13 4 -7 3 -10 -2 -7 -5 3
-17 -3 -26 -14 -22 -22 -11 -23 17 -2 11 8 20 21 20 28 0 8 16 28 35 46 18 17
30 35 24 38 -7 6 -27 41 -40 72 -2 3 2 12 8 20 8 12 9 12 4 -3 -3 -10 -2 -15
3 -12 6 3 9 19 9 37 -1 18 6 36 15 43 9 7 14 15 10 18 -3 4 -1 12 5 19 6 7 10
15 10 18 -2 11 15 56 25 69 6 7 12 20 13 28 1 8 6 22 10 31 4 9 8 22 8 27 1 6
8 30 15 54 7 23 11 45 9 47 -2 2 -65 -30 -139 -71 -73 -41 -138 -75 -144 -75
-5 0 -23 18 -38 40 -16 22 -32 40 -37 40 -4 0 -98 -38 -209 -84 l-201 -84 -34
42 c-41 50 -132 142 -209 214 -31 29 -57 58 -57 65 0 19 17 40 27 34 5 -3 10
0 10 8 0 8 -4 12 -9 9 -4 -3 -8 0 -8 5 0 6 8 11 18 12 10 0 12 3 4 6 -18 7 -4
23 16 17 13 -5 14 -4 3 4 -11 8 -11 17 4 57 16 40 26 50 77 76 32 16 61 29 64
28 4 0 11 5 16 13 8 10 9 10 5 -2 -2 -8 -9 -14 -15 -13 -5 1 -13 -4 -16 -12
-3 -10 0 -12 11 -8 10 4 14 2 10 -4 -3 -5 0 -10 8 -10 8 0 15 4 15 9 0 4 -5 8
-10 8 -6 0 -5 8 2 20 7 11 18 20 25 20 17 0 17 -17 1 -23 -10 -4 -10 -7 -1
-16 7 -6 11 -8 8 -5 -3 4 1 14 7 22 10 11 8 17 -7 28 -18 14 -18 14 1 15 10 1
25 1 33 0 7 -2 10 2 7 8 -7 10 10 24 33 28 8 1 18 8 22 15 7 10 9 10 9 -2 1
-9 6 -5 15 10 l15 25 -3 -25 c-1 -19 3 -25 18 -26 15 -1 16 0 3 3 -24 6 -23
23 2 23 11 0 20 4 20 10 0 5 -8 7 -17 3 -15 -5 -16 -3 -6 7 17 18 43 -4 38
-31 -2 -11 0 -17 5 -14 9 6 8 31 -3 41 -4 4 -7 14 -7 23 1 13 4 12 17 -4 13
-16 15 -17 10 -2 -4 9 -3 17 2 17 16 0 20 -13 10 -31 -8 -15 -6 -17 6 -13 9 4
13 9 11 12 -3 3 -1 11 6 19 9 11 14 11 32 -4 16 -14 18 -14 8 -2 -10 13 -10
19 1 28 8 6 17 7 22 3 4 -4 2 3 -4 16 -13 25 -26 30 -17 6 4 -10 2 -13 -6 -8
-6 4 -8 3 -4 -4 3 -6 2 -13 -4 -17 -5 -3 -10 2 -10 12 -1 15 -3 14 -14 -5 -12
-22 -13 -22 -26 -5 -8 10 -10 15 -5 10 4 -4 17 0 27 10 10 9 18 12 18 7 0 -5
5 -2 10 6 5 8 20 15 32 15 14 1 22 6 20 15 -3 11 0 11 12 0 9 -7 16 -9 16 -6
0 4 9 2 20 -4 16 -8 20 -8 18 2 -2 7 3 12 10 10 8 -1 11 2 7 7 -3 6 3 16 15
23 11 7 20 17 20 22 0 5 -9 1 -20 -9 -11 -10 -20 -13 -20 -8 0 16 69 55 82 47
6 -4 8 -2 5 3 -4 6 1 14 11 18 16 6 16 7 -1 16 -42 24 -253 76 -377 94 -246
35 -564 10 -733 -56 -117 -46 -248 -150 -312 -247 -18 -28 -33 -41 -44 -38
-47 13 -151 36 -186 42 -62 9 -77 21 -74 57 1 18 -1 39 -4 47 -6 16 -6 22 -10
97 -1 28 -5 49 -9 47 -4 -3 -6 4 -6 13 1 10 -2 41 -6 68 -5 28 -10 65 -12 84
-5 54 4 52 -254 55 -63 0 -143 -1 -177 -4z m2097 -365 c-11 -13 -50 -17 -50
-4 0 9 44 27 53 22 4 -3 3 -11 -3 -18z m-3930 -325 c0 -5 -2 -10 -4 -10 -3 0
-8 5 -11 10 -3 6 -1 10 4 10 6 0 11 -4 11 -10z m1928 -191 c-9 -6 -6 -9 10 -9
13 0 21 3 19 8 -3 4 28 7 68 7 41 1 71 -3 69 -7 -8 -12 10 -10 23 3 8 8 14 5
22 -10 12 -21 -2 -31 -14 -11 -8 13 -22 5 -34 -19 -7 -13 -6 -18 4 -18 7 0 11
6 8 13 -3 9 2 12 18 9 12 -3 29 0 36 7 10 8 18 7 31 -4 26 -22 46 -33 38 -20
-3 6 -2 13 3 16 12 8 22 -19 10 -31 -5 -5 -1 -9 10 -9 16 0 17 4 10 18 -6 10
-7 22 -4 27 6 11 -21 8 -31 -2 -12 -12 -20 -8 -21 12 -1 13 4 18 15 16 9 -2
17 -4 17 -5 0 -2 31 -7 73 -12 6 -1 12 -6 12 -13 0 -6 6 -19 13 -29 12 -16 13
-16 13 3 0 11 -4 17 -8 15 -4 -3 -5 3 -1 12 4 10 8 13 10 7 3 -7 10 -10 18 -7
7 3 16 1 19 -5 4 -6 13 -8 20 -5 8 3 17 1 20 -5 4 -6 14 -8 24 -5 13 5 14 4 4
-4 -11 -7 -11 -10 2 -15 8 -3 17 -1 19 6 2 7 4 -7 4 -31 -1 -32 -4 -41 -15
-37 -7 3 -22 5 -33 5 -10 0 -19 5 -19 11 0 5 5 7 12 3 7 -4 8 -3 4 5 -6 9 -11
9 -22 0 -7 -6 -22 -8 -31 -4 -10 4 -51 13 -92 21 -41 7 -78 19 -82 26 -6 9 -9
10 -9 1 0 -9 -18 -11 -67 -7 -38 4 -81 7 -98 8 -19 0 -29 6 -27 14 1 8 -2 11
-8 7 -6 -3 -7 -11 -4 -17 4 -6 1 -9 -7 -6 -8 3 -24 1 -37 -3 -17 -7 -27 -4
-43 12 -21 21 -21 21 -15 1 7 -21 -6 -24 -33 -8 -10 7 -12 5 -6 -4 6 -9 -2
-11 -33 -8 -22 2 -38 0 -35 -5 3 -5 -3 -8 -13 -6 -11 1 -26 -1 -34 -4 -8 -4
-28 -9 -45 -11 -16 -2 -38 -7 -47 -11 -10 -4 -25 -4 -34 -1 -10 4 -13 2 -8 -6
5 -7 0 -9 -14 -6 -14 4 -20 2 -16 -4 5 -7 -2 -9 -19 -6 -15 3 -24 2 -22 -2 5
-8 -140 -71 -167 -73 -9 -1 -14 -5 -12 -9 6 -10 -20 -11 -29 -1 -9 9 13 34 24
27 5 -3 8 -2 7 3 -2 4 2 8 7 8 6 0 9 -4 7 -8 -1 -4 7 -3 18 3 23 12 24 16 8
26 -7 4 -8 3 -4 -4 4 -7 3 -12 -3 -12 -17 0 -21 17 -7 29 10 8 16 9 21 1 10
-16 22 -12 27 8 5 19 38 26 38 9 0 -6 2 -8 5 -5 3 3 2 13 -1 22 -5 14 -9 15
-16 4 -8 -10 -9 -10 -5 2 2 8 8 15 13 15 5 1 19 6 31 13 13 7 24 8 28 2 3 -5
13 -6 23 -3 14 6 15 4 4 -9 -10 -13 -10 -18 -1 -24 7 -4 9 -3 6 3 -4 6 0 16 8
23 12 10 18 10 32 -1 11 -10 14 -10 9 -1 -8 14 -5 15 18 6 9 -3 13 -11 9 -17
-4 -6 -1 -7 7 -2 10 6 10 10 -3 20 -13 9 -14 15 -4 25 10 12 9 12 -5 1 -10 -7
-18 -10 -18 -5 0 5 -5 2 -10 -6 -8 -12 -10 -12 -10 -1 0 10 -3 11 -14 2 -11
-9 -16 -9 -22 0 -4 8 -3 9 4 5 7 -4 12 -2 12 4 0 7 7 10 15 7 8 -4 17 -2 20 3
3 5 19 7 35 5 21 -3 28 -1 24 7 -5 7 -3 8 7 2 8 -5 17 -9 22 -10 4 -1 10 -2
15 -3 4 -1 0 -6 -8 -11 -13 -8 -13 -11 -1 -22 8 -7 11 -8 8 -2 -8 15 39 48 48
34 3 -6 14 -10 23 -9 9 0 12 3 5 5 -23 10 29 48 64 47 18 -1 31 2 29 5 -2 4
14 7 36 8 25 1 35 -2 26 -7z m268 -22 c6 -8 3 -8 -9 1 -9 8 -20 11 -25 8 -5
-3 -9 1 -9 9 0 16 31 4 43 -18z m-416 2 c0 -12 -35 -20 -38 -9 -3 7 -9 4 -16
-6 -13 -18 -37 -12 -35 9 0 9 2 9 6 0 4 -10 7 -10 18 0 13 13 65 18 65 6z
m-362 -103 c-10 -7 -14 -17 -10 -22 4 -4 0 -3 -9 4 -13 10 -23 5 -58 -29 -28
-28 -39 -45 -32 -52 13 -13 0 -25 -65 -59 -28 -15 -54 -24 -58 -20 -4 4 -6 0
-4 -8 2 -9 -4 -14 -14 -14 -10 1 -16 -3 -15 -10 1 -6 -6 -10 -15 -10 -10 1
-16 -2 -13 -6 3 -5 -14 -23 -36 -41 l-42 -33 -24 29 -25 28 44 37 c24 21 46
36 51 33 4 -2 7 1 7 7 0 6 5 8 10 5 15 -9 1 -27 -17 -21 -9 4 -11 2 -7 -6 4
-7 3 -8 -4 -4 -18 11 -14 0 5 -15 9 -8 14 -9 10 -3 -6 10 13 25 35 28 3 1 10
5 15 9 4 5 2 7 -6 5 -7 -2 -16 3 -19 11 -3 8 0 11 7 7 6 -4 11 -1 11 7 0 8 7
18 16 21 24 9 36 7 29 -4 -4 -6 -10 -8 -15 -5 -10 6 -25 -14 -16 -22 9 -9 45
27 40 41 -2 6 8 19 24 28 26 16 28 16 28 -2 0 -12 -6 -17 -18 -15 -12 3 -16 0
-12 -7 5 -7 2 -8 -6 -3 -9 6 -11 4 -6 -4 5 -7 2 -20 -6 -30 -7 -9 -2 -6 11 9
14 14 31 24 38 22 8 -2 13 3 12 10 -4 33 3 46 31 58 16 7 32 11 36 10 4 -1 11
5 16 14 5 9 13 14 18 11 5 -3 11 -1 15 5 3 5 15 10 26 10 10 0 19 5 19 12 0 6
3 8 7 4 5 -4 0 -13 -9 -20z m-552 -469 c-1 -12 -8 -21 -15 -19 -7 1 -10 -2 -6
-7 3 -6 -15 -38 -39 -71 -25 -34 -60 -87 -77 -118 -18 -31 -35 -59 -38 -62 -3
-3 -7 -9 -8 -15 -5 -28 -41 -94 -48 -87 -5 4 -5 1 -1 -6 4 -7 2 -19 -4 -27 -7
-8 -9 -15 -6 -15 4 0 1 -10 -6 -22 -6 -13 -13 -30 -15 -38 -10 -49 -40 -150
-44 -146 -2 2 -4 -8 -5 -22 0 -15 -3 -45 -7 -67 -16 -85 -24 -326 -12 -346 4
-5 0 -9 -7 -9 -9 0 -9 -3 2 -10 8 -5 12 -10 9 -10 -4 0 -3 -16 1 -35 7 -29 5
-35 -9 -35 -14 -1 -14 -2 2 -11 19 -11 24 -44 5 -34 -7 4 -5 0 4 -8 14 -11 15
-16 5 -27 -10 -10 -9 -11 2 -5 11 6 13 1 9 -23 -3 -19 -1 -29 6 -25 5 4 7 -1
3 -10 -3 -10 -2 -17 3 -17 6 0 10 -7 10 -16 0 -8 -4 -13 -8 -10 -5 3 -9 -1 -9
-8 0 -8 6 -12 14 -9 8 3 14 -2 15 -13 0 -11 2 -23 3 -29 2 -5 4 -14 5 -20 1
-5 2 -13 1 -17 0 -5 3 -8 8 -8 5 0 12 -7 15 -16 4 -10 2 -13 -7 -8 -6 4 -4 -2
6 -13 10 -12 19 -40 21 -64 2 -31 7 -45 19 -47 9 -2 19 -11 22 -22 5 -16 10
-14 41 17 35 34 36 34 57 16 11 -10 17 -13 14 -6 -4 6 0 16 10 22 10 6 13 11
8 11 -6 0 -16 -5 -22 -11 -7 -7 -12 -6 -17 6 -3 9 -2 14 2 11 5 -3 23 13 41
34 27 33 36 38 51 30 28 -15 37 -12 14 5 -12 9 -14 14 -6 15 7 0 10 6 7 13 -4
6 1 3 10 -8 17 -20 17 -20 10 2 -5 18 0 26 27 43 18 11 29 20 24 20 -5 0 -3 7
4 15 7 8 16 12 21 9 5 -3 9 0 9 6 0 6 5 8 10 5 6 -3 10 1 10 9 0 18 16 21 25
6 8 -13 25 -13 25 1 0 5 -4 8 -9 5 -10 -6 -23 19 -14 28 3 3 16 -2 29 -11 14
-9 27 -13 30 -10 3 3 -4 8 -15 12 -21 6 -30 35 -10 35 5 0 7 -5 3 -12 -4 -7
-3 -8 4 -4 6 4 9 13 5 21 -3 8 0 15 7 15 13 0 9 51 -8 105 -5 17 -9 44 -8 62
1 17 -2 29 -5 27 -3 -2 -7 17 -8 43 0 25 -4 49 -7 54 -3 5 0 9 7 9 8 0 8 4 -1
15 -7 8 -9 15 -4 15 5 0 10 28 11 63 1 73 10 136 22 151 4 6 8 22 9 35 0 13 5
27 9 30 4 3 9 17 11 31 3 25 20 42 34 34 4 -3 8 0 8 6 0 7 -7 10 -15 6 -19 -7
-19 8 0 24 8 7 12 17 8 23 -4 7 0 8 12 3 16 -6 16 -4 4 11 -12 15 -12 16 5 10
15 -6 17 -5 7 6 -9 11 -5 20 15 40 15 15 23 31 18 38 -4 8 -3 9 4 5 11 -6 16
6 13 27 0 4 5 6 11 5 7 -2 12 3 10 11 -2 11 0 12 11 3 8 -7 17 -10 20 -7 4 3
5 2 2 -1 -2 -4 3 -13 11 -21 8 -9 13 -23 10 -32 -5 -13 -3 -13 8 2 13 17 14
17 21 0 5 -10 9 -22 10 -28 2 -16 -37 -55 -49 -48 -6 3 -8 2 -3 -2 8 -10 -52
-77 -63 -70 -7 5 -10 -14 -9 -60 1 -63 4 -83 11 -79 11 7 48 -58 41 -69 -3 -6
-1 -7 6 -3 6 4 8 12 5 18 -4 6 0 15 7 20 10 7 9 8 -6 3 -15 -5 -17 -3 -8 6 6
6 17 8 24 3 8 -4 22 -9 32 -9 10 -1 22 -8 27 -15 4 -7 12 -10 18 -6 5 3 18 -6
28 -20 11 -15 25 -33 33 -41 11 -12 10 -17 -5 -35 -19 -21 -19 -21 6 -8 23 12
24 12 11 -4 -12 -15 -12 -17 0 -14 10 2 14 -7 15 -28 1 -17 4 -36 8 -42 3 -6
2 -14 -4 -17 -6 -4 -1 -14 14 -26 16 -13 23 -27 21 -40 -4 -18 -2 -19 12 -7
15 12 15 11 5 -9 -15 -27 -15 -45 -1 -20 10 17 29 15 29 -4 0 -6 -4 -8 -9 -5
-5 4 -7 -4 -3 -16 5 -21 5 -21 14 2 9 24 10 23 53 -25 25 -27 45 -53 45 -58 0
-4 4 -6 8 -3 9 5 38 -23 37 -36 0 -4 9 -13 19 -21 13 -9 16 -19 11 -28 -7 -11
-6 -12 6 -3 11 9 24 1 60 -37 26 -27 43 -49 38 -49 -4 0 -17 10 -29 22 -11 12
-23 18 -27 15 -3 -4 -1 -7 6 -7 7 0 10 -4 7 -8 -3 -5 17 -19 44 -32 27 -13 52
-31 55 -41 4 -10 9 -18 13 -16 10 3 51 -40 45 -47 -9 -9 -25 -7 -19 2 2 4 -2
16 -10 27 -8 10 -14 14 -14 8 0 -7 5 -15 10 -18 8 -5 7 -11 -1 -21 -7 -9 -8
-14 -3 -13 5 1 16 1 24 0 13 -1 13 -2 0 -12 -13 -9 -13 -10 0 -8 30 3 41 -1
34 -13 -5 -7 -3 -8 6 -3 10 6 7 12 -11 26 -13 10 -19 19 -12 19 14 0 43 -28
43 -41 0 -6 4 -8 9 -5 5 3 14 -1 21 -9 7 -8 9 -15 4 -15 -4 0 8 -12 27 -26 19
-14 33 -30 31 -35 -1 -5 2 -9 7 -9 12 0 71 -58 71 -71 0 -5 4 -8 9 -4 5 3 12
1 16 -5 3 -6 -1 -13 -10 -17 -16 -5 -16 -7 -1 -15 9 -5 14 -13 11 -19 -4 -5
-1 -9 4 -9 14 0 14 13 -1 28 -9 9 -9 12 0 12 7 0 15 -7 18 -15 4 -8 11 -12 18
-8 6 4 5 -1 -3 -10 -12 -15 -12 -17 1 -12 17 7 48 -19 48 -38 0 -7 -9 -1 -19
12 -14 18 -20 21 -26 11 -5 -9 -4 -11 3 -6 7 4 12 2 12 -3 0 -18 -5 -26 -13
-23 -5 1 -6 -2 -2 -8 5 -8 11 -7 21 1 14 11 20 1 15 -25 -1 -5 4 -4 13 3 10 8
16 9 21 1 3 -5 11 -10 18 -10 6 0 2 6 -8 14 -11 8 -23 12 -27 10 -9 -6 -11 10
-2 18 7 7 50 -34 47 -44 -2 -4 6 -9 16 -13 10 -3 23 -17 30 -31 6 -14 15 -23
20 -19 5 3 12 1 15 -4 4 -5 2 -12 -4 -16 -6 -4 -3 -16 10 -32 11 -14 17 -30
13 -37 -4 -6 0 -5 9 2 11 9 18 10 23 2 3 -5 10 -10 16 -10 5 0 1 8 -8 18 -10
10 -20 15 -23 11 -3 -4 -13 4 -23 17 -10 13 -13 24 -8 24 6 0 14 -7 19 -16 5
-9 13 -16 18 -17 15 -2 43 -30 38 -38 -2 -4 4 -10 14 -13 10 -4 29 -29 42 -56
13 -27 27 -47 32 -44 7 5 12 -10 9 -28 0 -5 3 -8 9 -8 17 0 11 18 -15 46 -14
15 -25 31 -25 35 0 11 47 -37 60 -61 6 -11 14 -19 18 -19 19 3 23 -2 13 -15
-9 -11 -8 -17 8 -28 12 -8 18 -18 13 -23 -4 -5 -1 -5 7 0 11 6 9 12 -10 26
-13 10 -19 19 -12 19 16 0 44 -30 38 -40 -2 -4 8 -8 23 -7 15 0 39 -3 54 -6
22 -4 26 -3 21 11 -6 15 -5 16 13 2 17 -14 18 -14 6 2 -13 17 -47 14 -36 -3 3
-5 -2 -6 -11 -3 -12 5 -6 13 27 31 24 14 49 30 57 36 8 7 12 7 9 2 -4 -6 2
-16 13 -23 18 -11 18 -11 7 8 -11 17 -10 23 8 41 16 16 24 18 29 8 6 -8 4 -10
-5 -4 -9 5 -11 4 -6 -4 9 -14 29 -3 23 13 -7 18 39 60 49 45 4 -8 3 -9 -4 -5
-7 4 -12 3 -12 -3 0 -5 9 -9 19 -8 16 1 18 5 10 19 -6 11 -6 18 0 18 5 0 12
-6 15 -12 4 -7 4 -3 2 9 -2 12 3 28 11 35 18 15 45 20 37 7 -3 -5 -10 -6 -16
-3 -7 5 -8 2 -3 -6 5 -9 4 -11 -3 -6 -18 11 -14 0 5 -15 9 -8 14 -9 10 -3 -9
15 23 42 45 39 11 -2 15 2 11 13 -5 12 -2 14 13 9 19 -7 19 -7 0 8 -21 16 -38
11 -30 -10 5 -11 -8 -14 -34 -6 -1 1 7 10 18 21 11 11 28 17 40 15 11 -2 18 0
15 6 -4 5 1 12 9 15 8 3 18 15 21 25 5 15 10 17 20 9 9 -8 15 -8 20 0 4 6 1 9
-6 8 -6 -2 -14 3 -17 11 -3 9 0 11 8 6 9 -6 11 -4 5 5 -6 10 -11 9 -21 -6 -35
-50 -57 -74 -63 -69 -3 3 -1 9 5 13 5 4 23 24 39 45 17 23 34 36 42 33 8 -3
11 -1 8 5 -11 17 24 61 43 54 9 -3 13 -3 9 1 -4 4 -1 14 6 23 11 14 10 14 -6
2 -15 -12 -17 -12 -11 3 3 9 12 16 19 16 8 0 17 5 21 12 4 7 3 8 -4 4 -19 -11
-14 5 6 21 9 8 11 12 4 8 -6 -3 -2 10 9 30 l22 36 -34 37 c-19 20 -40 40 -47
45 -7 5 -10 13 -6 18 3 5 1 8 -4 7 -14 -4 -172 154 -165 166 3 5 1 6 -4 3 -12
-7 -36 16 -27 25 3 3 0 9 -7 14 -8 5 -10 3 -4 -7 4 -8 -101 94 -234 226 -132
132 -241 241 -241 243 0 2 6 0 13 -4 7 -4 9 -3 4 2 -5 5 -12 9 -15 9 -15 0
-32 17 -26 26 3 5 1 8 -4 7 -14 -4 -211 195 -205 207 4 5 3 7 -2 3 -4 -4 -14
-3 -22 3 -11 10 -11 15 -1 28 11 14 11 14 -3 4 -13 -11 -21 -7 -47 20 -18 18
-29 37 -25 42 5 4 3 5 -3 2 -6 -3 -37 21 -69 53 -51 51 -65 60 -95 60 -129 0
-216 76 -222 193 -1 29 -38 57 -74 57 -10 0 -27 8 -38 17 -12 10 -18 14 -15
10 3 -4 -30 -43 -75 -87 l-81 -79 -23 24 c-12 14 -22 27 -22 30 0 3 -12 17
-27 32 -16 14 -19 19 -9 12 17 -12 19 -12 14 3 -7 18 24 53 36 41 4 -5 17 -8
29 -8 12 0 22 -5 22 -12 0 -6 3 -14 7 -18 3 -4 5 0 4 9 -1 8 -5 19 -9 22 -16
16 -5 26 11 11 10 -10 22 -17 26 -17 5 0 -2 8 -15 19 -21 17 -55 19 -44 2 2
-4 -2 -8 -10 -8 -21 0 -19 4 10 23 20 13 28 14 40 4 9 -7 18 -10 22 -6 3 3 1
6 -5 6 -7 0 -12 8 -11 18 0 11 2 12 6 4 3 -9 10 -7 24 9 10 12 19 19 19 16 0
-3 3 -13 6 -21 5 -12 2 -15 -10 -10 -9 3 -16 2 -16 -4 0 -6 8 -9 18 -8 11 2
17 12 16 29 -1 20 3 24 18 22 10 -2 22 3 25 11 3 8 12 13 19 10 7 -3 16 -1 19
5 4 5 11 7 16 4 5 -4 9 -2 9 4 0 5 9 8 20 6 11 -2 20 2 20 8 1 7 7 1 14 -13 8
-14 12 -29 8 -34 -3 -5 5 -2 18 7 21 15 26 15 40 2 15 -13 17 -13 17 0 0 8 -5
11 -10 8 -5 -3 -7 0 -5 8 3 8 12 13 22 11 9 -2 16 1 16 5 0 5 -9 9 -20 10 -11
1 -20 -2 -20 -8 0 -5 -5 -9 -11 -9 -5 0 -7 5 -3 12 4 7 3 8 -5 4 -6 -4 -9 -11
-6 -16 3 -4 -2 -10 -10 -14 -8 -3 -15 -1 -15 4 0 14 31 41 41 35 5 -4 9 -1 9
6 0 8 3 9 13 0 8 -6 17 -8 21 -4 10 11 86 14 86 4 0 -5 -13 -7 -30 -5 -29 3
-55 -16 -32 -24 7 -2 10 -7 8 -11 -3 -4 1 -8 9 -8 8 0 14 3 13 6 -2 19 3 31
13 31 6 0 8 -10 5 -22 -3 -13 -3 -17 0 -10 5 10 11 10 31 -4 14 -9 22 -11 19
-5 -4 6 -1 11 6 12 10 0 11 2 0 6 -10 4 -10 8 0 21 9 12 6 11 -10 -2 -12 -11
-25 -16 -30 -11 -4 4 -1 10 6 12 6 3 10 8 8 11 -2 4 11 8 29 8 21 0 36 -6 44
-18 8 -14 8 -18 -1 -18 -6 0 -9 -3 -5 -6 3 -3 11 -3 17 1 8 5 8 10 0 20 -8 10
-8 15 1 21 8 4 9 3 5 -4 -4 -7 -2 -12 5 -12 6 0 9 -8 7 -18 -3 -11 0 -19 8
-19 17 0 17 3 4 27 -7 13 -7 21 0 25 5 3 10 -2 10 -12 0 -11 3 -14 8 -7 9 15
58 12 55 -4 -3 -11 10 -17 31 -13 5 1 6 -5 2 -14 -3 -10 -2 -13 5 -10 5 4 7
16 4 28 -4 12 -3 18 2 12 4 -5 17 -11 28 -12 52 -5 99 -29 89 -45 -5 -7 -11
-5 -19 6 -11 15 -13 15 -19 1 -3 -9 -2 -14 3 -11 5 3 12 -1 15 -10 7 -18 -57
-144 -118 -237 -39 -58 -43 -75 -23 -83 8 -3 14 -10 15 -17 0 -7 2 -21 4 -32
2 -12 -2 -19 -10 -17 -8 1 -11 -2 -7 -9 5 -7 10 -8 18 0 12 12 50 -25 41 -40
-3 -5 -1 -9 5 -9 14 0 9 39 -5 44 -7 3 -18 15 -25 28 -8 14 5 6 34 -21 26 -25
47 -53 47 -64 0 -10 -5 -15 -11 -12 -6 4 -8 13 -5 21 3 7 2 15 -2 18 -4 3 -8
-4 -9 -14 -2 -19 12 -34 32 -35 6 -1 9 -6 8 -13 -2 -6 4 -9 12 -6 13 5 13 8 0
21 -22 22 -18 29 5 8 15 -13 17 -21 9 -31 -8 -10 -5 -11 13 -6 19 4 21 3 11
-9 -8 -10 -9 -19 -1 -29 8 -12 9 -12 4 3 -3 11 0 17 10 17 11 0 13 -6 8 -22
-6 -19 -5 -21 8 -11 12 10 20 7 43 -17 18 -19 26 -36 22 -49 -3 -12 0 -19 7
-18 6 1 10 -4 8 -11 -1 -8 2 -11 8 -7 7 4 6 13 -2 28 -10 20 -10 21 6 8 10 -8
15 -23 12 -33 -4 -16 -2 -17 11 -6 13 10 15 9 11 -7 -2 -13 -10 -19 -23 -17
-16 2 -17 1 -5 -7 10 -7 19 -6 30 4 14 13 20 11 48 -18 25 -26 29 -36 20 -45
-8 -8 -8 -12 -1 -12 6 0 13 7 17 15 3 8 9 14 13 13 4 -1 18 3 29 10 12 6 24 8
28 5 3 -3 6 -1 6 5 0 6 -9 10 -20 9 -11 -1 -20 -5 -20 -10 0 -4 -5 -5 -12 -1
-6 4 -8 3 -5 -3 3 -5 -1 -10 -10 -10 -12 0 -11 4 7 19 12 10 26 15 31 12 5 -3
9 2 9 10 0 8 13 24 28 35 27 19 30 19 52 4 13 -9 20 -11 16 -5 -7 11 26 35 41
30 4 -2 9 2 11 7 3 13 -21 14 -30 1 -4 -6 -11 -7 -15 -2 -12 11 26 36 45 29
10 -4 13 -2 8 5 -7 12 27 35 38 25 3 -3 6 0 6 7 0 7 3 10 7 7 3 -4 12 -2 19 4
18 15 28 -4 36 -68 1 -7 6 -13 12 -13 6 0 4 -5 -4 -10 -11 -7 -11 -10 -2 -10
7 0 10 -4 7 -10 -3 -5 0 -10 7 -11 7 0 4 -4 -7 -9 -18 -8 -18 -9 -2 -9 10 -1
15 -5 12 -11 -3 -5 0 -10 7 -11 10 0 10 -2 1 -6 -9 -3 -10 -10 -3 -22 5 -10 9
-41 8 -69 0 -28 3 -56 7 -61 3 -6 3 -11 -2 -11 -7 0 -12 -58 -13 -148 0 -13
-4 -21 -9 -17 -6 3 -7 -6 -2 -22 4 -16 7 -36 5 -46 -1 -9 2 -15 7 -11 5 3 6
11 3 17 -4 7 21 -15 54 -48 34 -33 62 -66 62 -73 0 -7 4 -11 8 -8 11 7 155
-138 146 -147 -4 -4 -3 -7 3 -7 6 0 28 -16 49 -36 22 -20 29 -31 17 -25 -12 6
-29 18 -37 27 -9 8 -16 10 -16 4 0 -6 7 -13 15 -16 13 -5 13 -9 3 -23 -10 -13
-10 -14 1 -4 11 9 22 8 52 -8 38 -19 88 -28 61 -11 -7 5 -10 16 -6 25 3 9 11
14 17 10 6 -3 7 -1 3 6 -4 6 -2 18 4 26 6 8 9 19 5 25 -3 5 -1 10 5 10 6 0 8
5 4 12 -5 8 -1 9 12 4 14 -5 16 -4 8 4 -13 13 -6 60 8 60 5 0 7 4 3 9 -3 5 2
16 10 24 10 11 11 17 3 19 -7 3 -8 9 -3 19 12 18 17 38 16 67 0 12 3 22 7 22
4 0 8 12 9 28 2 68 3 73 16 66 8 -5 8 -2 -2 9 -11 14 -11 17 0 17 11 0 11 2
-1 10 -13 9 -13 11 -1 19 12 8 12 12 2 25 -8 9 -10 16 -5 16 9 0 9 135 1 198
-3 19 0 32 7 32 8 0 8 2 -1 8 -6 4 -13 34 -16 67 -3 33 -8 67 -12 76 -8 20 20
50 40 43 22 -9 18 -23 -5 -19 -11 2 -23 -1 -26 -7 -5 -7 -2 -8 5 -4 8 5 11 2
9 -9 -2 -11 4 -19 16 -21 14 -2 16 0 7 9 -18 18 -13 28 9 15 24 -15 30 -29 36
-92 5 -38 3 -47 -8 -41 -8 4 -7 1 2 -7 17 -14 21 -94 6 -117 -6 -9 -5 -12 2
-7 7 4 10 -22 10 -84 -1 -49 -4 -88 -7 -86 -3 2 -7 -19 -8 -47 -2 -51 -8 -102
-17 -142 -2 -11 -5 -28 -5 -38 -1 -10 -5 -15 -11 -12 -6 3 -7 -1 -4 -10 7 -18
-55 -205 -68 -205 -5 0 -7 -4 -4 -9 9 -14 -5 -42 -17 -34 -5 3 -7 1 -4 -4 13
-20 -102 -230 -118 -216 -4 4 -5 3 -2 -3 4 -6 -4 -25 -16 -41 -12 -17 -31 -43
-42 -58 -80 -110 -311 -325 -335 -310 -6 4 -9 2 -8 -3 6 -21 -194 -138 -214
-126 -6 4 -8 3 -5 -3 4 -6 -29 -25 -76 -45 -63 -27 -85 -33 -96 -24 -11 8 -13
8 -8 -1 9 -14 -27 -28 -44 -17 -7 4 -9 3 -5 -4 6 -11 -82 -35 -96 -26 -4 3 -8
1 -8 -4 0 -5 -35 -14 -77 -20 -95 -15 -106 -15 -98 -2 3 5 1 10 -4 10 -6 0
-11 -6 -11 -14 0 -12 -27 -14 -150 -13 -82 1 -150 4 -150 8 0 3 -16 5 -35 2
-19 -2 -35 0 -35 4 0 5 -23 9 -50 10 -27 2 -82 12 -122 23 -40 12 -79 22 -85
22 -7 1 -13 4 -13 8 0 3 -10 7 -22 7 -13 1 -24 7 -26 12 -2 5 -10 7 -18 4 -17
-6 -18 8 -1 27 10 12 9 12 -4 2 -9 -6 -20 -8 -24 -4 -5 4 -5 1 -1 -5 4 -7 5
-13 3 -13 -8 0 -169 81 -215 107 -37 22 -41 27 -30 42 12 14 11 14 -4 3 -15
-12 -23 -9 -62 19 -25 17 -43 36 -39 42 4 6 1 7 -6 3 -15 -10 -53 23 -44 38 3
6 3 8 -2 4 -11 -11 -47 11 -39 24 4 6 3 8 -3 5 -27 -17 -331 348 -323 387 1 5
-3 12 -8 15 -16 10 -73 131 -67 141 4 6 1 10 -5 10 -7 0 -9 7 -6 16 3 8 2 13
-3 10 -11 -7 -43 82 -35 95 3 5 1 9 -4 9 -6 0 -16 24 -23 53 -7 28 -14 54 -14
57 -1 3 -5 16 -8 30 -9 32 -16 73 -23 130 -3 24 -8 49 -11 54 -4 5 -1 6 6 1
10 -6 11 -3 3 11 -12 23 -12 253 0 260 5 3 4 12 -3 20 -6 8 -7 14 -2 14 5 0 9
17 10 38 0 60 7 102 15 102 4 0 4 7 1 17 -5 12 -3 14 8 8 11 -7 11 -5 -1 10
-11 14 -11 17 -1 11 10 -7 12 -3 6 13 -5 16 -1 27 12 37 10 9 12 12 4 8 -11
-5 -13 -3 -8 10 4 10 7 21 7 26 0 5 7 16 16 24 8 9 10 16 4 16 -7 0 -8 6 -1
19 6 10 7 22 3 26 -4 5 -1 5 6 1 9 -5 12 -3 10 7 -2 9 2 15 7 14 6 -1 9 -6 7
-10 -1 -5 2 -5 8 -2 8 5 6 13 -5 25 -13 14 -13 19 -2 28 17 14 27 6 20 -16 -4
-14 -3 -15 6 -2 7 10 6 19 -3 30 -13 16 -10 54 4 45 4 -3 11 2 14 11 3 8 2 12
-4 9 -6 -3 -7 1 -4 9 3 9 10 13 16 10 5 -3 8 2 6 12 -2 11 2 18 9 17 7 -2 10
3 7 11 -3 8 0 17 5 21 6 3 9 11 6 16 -4 5 -1 9 4 9 6 0 10 3 9 8 -2 13 14 42
25 42 5 0 2 -9 -7 -19 -12 -13 -14 -21 -6 -26 6 -4 9 -1 8 7 -2 7 2 12 8 11 7
-1 10 10 9 27 -2 20 5 38 21 55 13 14 21 25 18 25 -3 0 7 16 22 35 21 27 30
33 40 24 7 -6 19 -9 26 -6 9 4 7 6 -3 6 -22 1 -34 31 -13 31 9 0 12 -5 8 -12
-4 -7 -3 -8 5 -4 9 6 9 11 0 22 -10 12 -9 13 7 7 17 -6 18 -5 4 13 -10 14 -7
13 11 -4 15 -13 26 -32 25 -45z m1074 -37 c0 -5 -2 -10 -4 -10 -3 0 -8 5 -11
10 -3 6 -1 10 4 10 6 0 11 -4 11 -10z m-1977 -64 c7 -17 -18 -15 -35 2 -9 9
-7 12 9 12 11 0 23 -6 26 -14z m49 -30 c7 4 8 2 4 -5 -9 -14 -36 3 -36 23 0 6
5 3 11 -7 6 -9 15 -14 21 -11z m3528 -511 c0 -8 -4 -15 -10 -15 -5 0 -7 7 -4
15 4 8 8 15 10 15 2 0 4 -7 4 -15z m-786 -96 c-3 -5 -10 -7 -15 -3 -5 3 -7 10
-3 15 3 5 10 7 15 3 5 -3 7 -10 3 -15z m-2084 -850 c0 -5 -4 -9 -8 -9 -5 0 -9
7 -9 15 0 8 4 12 9 9 4 -3 8 -9 8 -15z m-650 -784 c0 -9 -6 -12 -15 -9 -8 4
-12 10 -9 15 8 14 24 10 24 -6z m620 -55 c0 -5 -2 -10 -4 -10 -3 0 -8 5 -11
10 -3 6 -1 10 4 10 6 0 11 -4 11 -10z m910 -489 c0 -4 -9 -7 -19 -7 -11 0 -17
4 -15 8 3 4 1 8 -5 8 -5 0 -11 -5 -13 -10 -2 -6 -8 -2 -15 9 -11 17 -9 18 28
9 21 -6 39 -13 39 -17z"/>
<path d="M4460 4630 c-9 -6 -10 -10 -3 -10 6 0 15 5 18 10 8 12 4 12 -15 0z"/>
<path d="M2450 4103 c0 -5 -6 -10 -12 -11 -7 0 -26 -3 -41 -7 -18 -3 -26 -2
-22 5 3 5 0 7 -9 4 -16 -6 -30 -34 -21 -42 3 -3 5 -1 5 5 0 6 10 9 23 8 12 -1
32 4 44 12 19 11 24 10 33 -5 11 -16 11 -16 6 1 -5 15 -2 17 17 11 12 -3 20
-5 17 -2 -29 23 -40 29 -40 21z"/>
<path d="M2513 4094 c-9 -6 -13 -17 -10 -25 4 -10 6 -9 6 4 1 9 6 17 12 17 5
0 7 -6 3 -12 -6 -10 -4 -10 8 0 11 9 18 10 23 2 3 -6 12 -7 18 -3 19 12 49 14
42 3 -3 -5 -1 -10 4 -10 6 0 11 5 11 10 0 6 0 13 0 18 0 13 -39 10 -51 -4 -6
-8 -16 -11 -21 -8 -6 4 -5 10 3 15 10 6 6 8 -10 6 -13 -1 -30 -6 -38 -13z"/>
<path d="M2816 4082 c-2 -4 -1 -14 5 -22 6 -10 9 -11 9 -2 0 6 5 12 11 12 5 0
7 -4 4 -10 -3 -5 -2 -17 3 -26 8 -15 10 -15 15 0 5 12 3 15 -5 10 -8 -5 -9 -2
-5 9 7 17 -27 44 -37 29z"/>
<path d="M2470 4060 c0 -5 5 -10 10 -10 6 0 10 5 10 10 0 6 -4 10 -10 10 -5 0
-10 -4 -10 -10z"/>
<path d="M2576 4062 c-2 -4 4 -8 14 -8 10 0 16 4 14 8 -3 4 -9 8 -14 8 -5 0
-11 -4 -14 -8z"/>
<path d="M2710 4060 c0 -5 5 -10 10 -10 6 0 10 5 10 10 0 6 -4 10 -10 10 -5 0
-10 -4 -10 -10z"/>
<path d="M2907 4064 c-3 -4 -2 -14 3 -24 5 -10 6 -20 3 -24 -3 -3 -1 -6 5 -6
15 0 15 6 2 31 -14 25 1 25 23 -1 10 -12 23 -17 33 -13 13 5 15 3 9 -7 -5 -8
-4 -11 3 -6 6 3 15 -2 21 -11 6 -10 11 -13 11 -6 0 18 -53 64 -67 59 -7 -3
-15 -1 -18 4 -7 11 -19 13 -28 4z m63 -24 c0 -5 -2 -10 -4 -10 -3 0 -8 5 -11
10 -3 6 -1 10 4 10 6 0 11 -4 11 -10z"/>
<path d="M2190 4040 c0 -5 7 -7 15 -4 8 4 15 8 15 10 0 2 -7 4 -15 4 -8 0 -15
-4 -15 -10z"/>
<path d="M2270 4040 c-9 -6 -10 -10 -3 -10 6 0 15 5 18 10 8 12 4 12 -15 0z"/>
<path d="M2035 4017 c-14 -11 -15 -16 -5 -22 9 -5 11 -4 6 3 -4 7 -1 12 9 12
9 0 13 -4 10 -10 -3 -5 -1 -10 4 -10 13 0 14 10 3 27 -7 10 -12 10 -27 0z"/>
<path d="M2030 3965 c0 -8 2 -15 4 -15 2 0 6 7 10 15 3 8 1 15 -4 15 -6 0 -10
-7 -10 -15z"/>
<path d="M1836 3927 c-16 -12 -16 -14 -3 -14 9 0 18 6 21 14 3 7 4 13 3 13 -2
0 -11 -6 -21 -13z"/>
<path d="M1600 3776 c-9 -11 -9 -19 0 -33 10 -16 10 -15 5 5 -6 22 -5 23 14
12 12 -6 18 -16 15 -22 -5 -7 -2 -8 6 -3 10 6 8 12 -8 25 -12 10 -18 20 -15
24 4 3 4 6 1 6 -3 0 -11 -7 -18 -14z"/>
<path d="M1566 3752 c-4 -7 -2 -12 4 -12 6 0 9 -4 5 -9 -3 -6 5 -15 17 -21 22
-11 22 -11 3 5 -11 9 -19 18 -17 21 2 2 2 10 0 16 -3 9 -6 9 -12 0z"/>
<path d="M1393 3530 c-1 -11 2 -20 7 -20 4 0 7 7 6 15 -3 23 -12 26 -13 5z"/>
<path d="M1312 3481 c-15 -21 -18 -32 -10 -37 6 -4 8 -3 4 4 -3 6 -2 13 4 17
10 6 34 45 27 45 -2 0 -13 -13 -25 -29z"/>
<path d="M1336 3473 c-6 -14 -5 -15 5 -6 7 7 10 15 7 18 -3 3 -9 -2 -12 -12z"/>
<path d="M2590 3479 c0 -5 5 -7 10 -4 6 3 10 8 10 11 0 2 -4 4 -10 4 -5 0 -10
-5 -10 -11z"/>
<path d="M2686 3473 c-3 -8 1 -10 12 -6 14 5 14 3 -3 -18 l-20 -24 20 17 c15
12 25 14 40 7 15 -8 13 -5 -4 9 -18 15 -21 21 -10 25 8 3 4 4 -8 4 -12 -1 -25
-7 -27 -14z"/>
<path d="M2316 3458 c3 -5 -6 -7 -20 -4 -14 3 -28 0 -32 -5 -3 -5 -9 -7 -14
-4 -4 3 -13 -2 -20 -10 -7 -8 -10 -16 -6 -16 25 -5 33 -3 52 14 16 13 24 15
29 7 6 -9 10 -9 16 1 7 11 9 10 9 -3 0 -9 4 -20 10 -23 7 -4 7 2 1 18 -6 14
-8 27 -5 29 2 3 -3 5 -11 5 -8 0 -12 -4 -9 -9z m-44 -20 c-14 -14 -44 -20 -36
-7 3 5 9 7 14 4 5 -3 11 -1 15 5 3 5 9 10 13 10 3 0 1 -5 -6 -12z"/>
<path d="M2793 3455 c0 -7 8 -17 18 -23 13 -8 21 -7 34 8 18 20 4 23 -24 6
-11 -7 -13 -5 -9 6 4 8 1 15 -6 15 -7 0 -13 -6 -13 -12z"/>
<path d="M2451 3444 c0 -11 3 -14 6 -6 3 7 2 16 -1 19 -3 4 -6 -2 -5 -13z"/>
<path d="M2195 3421 c-3 -6 -1 -11 5 -11 6 0 9 -4 6 -8 -3 -5 1 -9 9 -9 12 0
12 3 3 16 -7 9 -13 17 -14 19 -1 2 -5 -1 -9 -7z"/>
<path d="M2746 3418 c3 -4 11 -5 19 -1 21 7 19 12 -4 10 -11 0 -18 -5 -15 -9z"/>
<path d="M1260 3400 c-9 -6 -10 -10 -3 -10 6 0 15 5 18 10 8 12 4 12 -15 0z"/>
<path d="M2830 3402 c0 -4 9 -8 19 -8 11 0 17 4 15 8 -3 4 -12 8 -20 8 -8 0
-14 -4 -14 -8z"/>
<path d="M1273 3365 c0 -8 4 -12 9 -9 5 3 6 10 3 15 -9 13 -12 11 -12 -6z"/>
<path d="M2020 3335 c-7 -8 -11 -15 -9 -16 24 -5 51 -4 61 3 10 7 10 8 -2 7
-29 -3 -41 1 -35 11 9 15 -1 12 -15 -5z"/>
<path d="M1170 3199 c0 -5 5 -7 10 -4 6 3 10 8 10 11 0 2 -4 4 -10 4 -5 0 -10
-5 -10 -11z"/>
<path d="M1799 3104 c-11 -14 -11 -16 0 -10 10 7 12 3 6 -15 l-7 -24 17 23
c21 29 6 52 -16 26z"/>
<path d="M1830 3070 c-6 -11 -8 -20 -6 -20 3 0 10 9 16 20 6 11 8 20 6 20 -3
0 -10 -9 -16 -20z"/>
<path d="M1860 3050 c-8 -5 -10 -10 -5 -10 6 0 17 5 25 10 8 5 11 10 5 10 -5
0 -17 -5 -25 -10z"/>
<path d="M1740 3020 c-8 -5 -10 -10 -5 -10 6 0 17 5 25 10 8 5 11 10 5 10 -5
0 -17 -5 -25 -10z"/>
<path d="M1075 2999 c-4 -6 -5 -12 -2 -15 2 -3 7 2 10 11 7 17 1 20 -8 4z"/>
<path d="M1710 2950 c-9 -6 -10 -10 -3 -10 6 0 15 5 18 10 8 12 4 12 -15 0z"/>
<path d="M1675 2880 c-3 -6 1 -7 9 -4 18 7 21 14 7 14 -6 0 -13 -4 -16 -10z"/>
<path d="M3444 2862 c4 -7 2 -12 -3 -12 -6 0 -11 -4 -11 -10 0 -15 17 -12 23
5 4 8 1 17 -5 21 -7 4 -8 3 -4 -4z"/>
<path d="M2907 2839 c7 -7 15 -10 18 -7 3 3 -2 9 -12 12 -14 6 -15 5 -6 -5z"/>
<path d="M2945 2840 c-3 -6 1 -7 10 -4 11 5 14 2 9 -12 -5 -16 -4 -16 5 -4 11
15 14 9 12 -25 l-1 -20 9 20 c13 30 -27 72 -44 45z"/>
<path d="M3390 2838 c0 -5 -4 -7 -8 -4 -5 3 -9 -1 -9 -9 0 -8 4 -15 9 -15 4 0
8 5 8 10 0 6 7 10 15 10 8 0 15 4 15 8 0 5 -7 9 -15 9 -8 0 -15 -4 -15 -9z"/>
<path d="M3411 2811 c-8 -5 -9 -11 -3 -15 5 -3 12 1 16 9 6 17 6 18 -13 6z"/>
<path d="M1666 2798 c3 -5 10 -6 15 -3 13 9 11 12 -6 12 -8 0 -12 -4 -9 -9z"/>
<path d="M3242 2749 c-12 -11 -22 -23 -22 -26 0 -3 9 2 20 12 20 18 29 8 10
-11 -7 -7 -6 -11 4 -11 8 0 15 3 14 6 0 3 0 13 1 21 1 13 2 13 11 0 5 -8 10
-10 10 -4 0 6 -6 17 -13 23 -10 8 -19 6 -35 -10z"/>
<path d="M1850 2740 c1 -12 16 -27 30 -28 40 -2 55 -10 53 -28 -1 -11 0 -13 3
-6 3 6 10 12 15 12 6 0 7 -5 3 -12 -5 -7 -3 -8 6 -3 10 6 8 12 -8 25 -12 10
-18 21 -14 26 4 5 0 3 -8 -3 -13 -10 -18 -8 -28 7 -10 16 -52 25 -52 10z m44
-8 c3 -5 -1 -9 -9 -9 -8 0 -15 4 -15 9 0 4 4 8 9 8 6 0 12 -4 15 -8z"/>
<path d="M1795 2731 c-3 -5 -2 -12 3 -15 5 -3 9 1 9 9 0 17 -3 19 -12 6z"/>
<path d="M3086 2716 c5 -13 4 -17 -3 -13 -13 8 -11 -18 1 -30 4 -4 6 -3 4 4
-1 6 2 11 7 11 6 0 9 -3 8 -7 -1 -4 5 -8 13 -8 19 0 18 4 -11 35 -19 20 -24
22 -19 8z"/>
<path d="M1970 2660 c0 -5 5 -10 11 -10 5 0 7 5 4 10 -3 6 -8 10 -11 10 -2 0
-4 -4 -4 -10z"/>
<path d="M1995 2590 c-3 -5 -1 -10 4 -10 6 0 11 5 11 10 0 6 -2 10 -4 10 -3 0
-8 -4 -11 -10z"/>
<path d="M2033 2475 c0 -8 4 -12 9 -9 5 3 6 10 3 15 -9 13 -12 11 -12 -6z"/>
<path d="M1919 2397 c-59 -55 -193 -175 -243 -218 -22 -19 -54 -48 -72 -66
-24 -24 -34 -29 -43 -20 -9 9 -11 8 -6 -4 7 -19 -29 -54 -46 -43 -8 4 -10 3
-5 -4 13 -21 -6 -37 -19 -18 -11 15 -13 15 -19 1 -3 -9 -2 -13 4 -10 27 17 4
-16 -41 -59 -41 -39 -53 -46 -61 -35 -8 11 -9 10 -4 -3 3 -11 -7 -27 -28 -46
-18 -15 -36 -34 -40 -40 -7 -11 6 -41 34 -76 13 -17 13 -19 0 -11 -8 4 -5 -2
8 -14 33 -33 55 -69 47 -80 -3 -6 0 -8 8 -5 19 7 51 -36 37 -50 -6 -6 -10 -15
-10 -21 0 -5 5 -3 10 5 7 12 13 13 27 3 10 -6 17 -16 16 -21 -2 -6 6 -13 16
-17 10 -3 21 -15 24 -26 3 -12 10 -18 16 -14 7 3 8 0 5 -9 -3 -9 -10 -14 -14
-11 -5 3 -11 2 -13 -2 -3 -5 8 -9 25 -10 21 0 26 2 17 8 -8 5 -9 9 -3 9 6 0
21 -11 33 -24 17 -18 19 -26 10 -31 -8 -6 -10 -4 -4 5 6 9 4 11 -5 5 -9 -6
-11 -4 -5 5 5 8 4 11 -3 6 -6 -4 -9 -13 -5 -21 6 -18 9 -18 33 -5 15 8 21 6
30 -10 6 -11 16 -17 22 -14 7 4 8 2 4 -5 -6 -8 -12 -9 -20 -2 -7 6 -16 8 -20
4 -4 -4 -4 1 -1 12 4 12 3 15 -2 9 -4 -6 -15 -14 -23 -17 -15 -6 -14 -6 32
-11 7 0 19 -12 26 -26 13 -23 13 -23 9 -2 -3 12 -1 22 4 22 5 0 9 -5 9 -11 0
-5 5 -7 10 -4 6 3 13 -1 16 -9 3 -9 10 -14 14 -11 5 3 11 1 14 -4 4 -5 1 -13
-5 -17 -8 -5 -9 -3 -4 6 5 9 4 11 -4 6 -6 -4 -14 0 -17 8 -3 9 -10 13 -16 10
-5 -3 0 -13 12 -21 16 -11 18 -18 10 -28 -8 -9 -8 -15 0 -20 6 -4 9 -1 8 7 -2
7 3 12 10 10 8 -1 11 2 7 8 -3 5 1 10 9 10 19 0 20 -11 4 -29 -7 -8 -8 -11 -2
-8 13 7 47 -26 37 -36 -3 -4 -1 -7 5 -7 15 0 15 13 0 28 -9 9 -9 12 1 12 7 0
9 5 5 11 -5 8 -9 8 -14 -1 -5 -8 -10 -9 -14 -2 -13 21 16 23 38 3 12 -12 26
-18 29 -14 4 3 7 2 7 -4 0 -16 45 -24 72 -14 13 6 20 10 16 10 -8 1 28 41 37
41 2 0 2 -8 -1 -17 -5 -17 -5 -17 6 0 6 9 15 15 21 12 5 -4 9 -2 9 3 0 6 -7
13 -16 16 -10 4 -13 2 -8 -6 4 -7 3 -8 -5 -4 -9 6 -9 11 0 22 8 10 15 11 24 4
10 -8 15 -8 21 1 4 8 3 9 -4 5 -17 -10 -15 11 4 39 9 14 20 22 25 19 5 -3 17
0 26 6 17 11 17 11 -1 6 -16 -6 -17 -4 -6 9 7 8 16 13 20 10 4 -3 7 3 6 13 -1
11 5 16 16 14 9 -1 20 3 24 9 4 7 3 9 -4 5 -6 -3 -13 -2 -16 3 -9 14 21 33 43
26 22 -7 38 10 20 21 -8 4 -9 3 -5 -4 4 -7 3 -12 -3 -12 -17 0 -20 14 -5 27 8
8 15 9 19 3 3 -6 11 -10 16 -10 6 0 3 7 -5 16 -18 17 -13 34 10 34 8 0 14 6
14 14 0 19 25 27 41 13 10 -10 10 -8 0 6 -8 9 -10 21 -6 25 4 4 10 1 12 -5 3
-7 9 -13 15 -13 6 0 6 6 -2 15 -9 11 -9 19 3 35 9 12 18 17 21 11 4 -5 2 -12
-4 -16 -5 -3 -10 -11 -10 -18 0 -6 6 -2 14 8 10 14 11 25 5 38 -7 12 -6 17 3
15 7 -2 12 3 10 11 -3 12 0 12 12 2 9 -7 16 -8 20 -2 4 5 1 13 -4 16 -8 5 -6
13 6 26 19 21 34 25 34 8 0 -5 -4 -8 -9 -4 -5 3 -13 0 -17 -7 -4 -7 -4 -10 1
-6 4 4 13 3 20 -2 15 -13 17 19 1 40 -5 8 -7 12 -2 8 9 -7 52 33 48 45 -1 5 7
11 18 14 11 3 18 9 15 13 -3 4 4 19 16 33 l20 26 -61 61 c-33 33 -58 65 -55
70 3 5 0 12 -6 16 -8 4 -9 3 -5 -4 12 -20 -9 -13 -27 8 -10 12 -15 26 -11 32
4 7 3 8 -4 4 -15 -9 -165 141 -156 156 4 7 3 8 -4 4 -6 -4 -46 28 -91 74 -44
44 -84 80 -88 80 -4 0 -29 -20 -54 -43z"/>
<path d="M2113 2395 c0 -8 4 -12 9 -9 4 3 8 0 8 -5 0 -6 -6 -11 -14 -11 -8 0
-18 -4 -21 -10 -4 -6 2 -7 18 -1 17 7 29 6 37 -2 7 -7 3 3 -9 21 -25 36 -28
38 -28 17z"/>
<path d="M2120 2340 c-12 -7 -10 -9 7 -7 12 0 19 5 17 9 -6 10 -6 10 -24 -2z"/>
<path d="M2170 2333 c5 -2 8 -9 4 -14 -3 -5 0 -9 6 -9 15 0 7 23 -8 26 -7 1
-8 0 -2 -3z"/>
<path d="M2210 2301 c0 -6 5 -13 10 -16 8 -5 7 -11 -1 -21 -7 -9 -8 -14 -3
-13 21 4 33 -2 37 -18 4 -17 5 -17 6 0 0 10 -6 20 -15 24 -9 3 -12 9 -7 12 5
3 1 14 -9 24 -10 9 -18 13 -18 8z"/>
<path d="M2187 2287 c-3 -8 1 -14 8 -14 7 0 11 6 8 14 -3 7 -6 13 -8 13 -2 0
-5 -6 -8 -13z"/>
<path d="M3530 2265 c0 -2 10 -10 23 -16 20 -11 21 -11 8 4 -13 16 -31 23 -31
12z"/>
<path d="M3515 2240 c3 -5 8 -10 11 -10 2 0 4 5 4 10 0 6 -5 10 -11 10 -5 0
-7 -4 -4 -10z"/>
<path d="M2290 2222 c0 -7 -6 -12 -14 -12 -8 0 -18 -4 -21 -10 -4 -6 2 -7 18
-1 17 7 29 6 38 -2 9 -9 9 -6 -1 8 -8 11 -16 22 -17 24 -2 2 -3 -1 -3 -7z"/>
<path d="M3555 2220 c-3 -6 1 -7 9 -4 18 7 21 14 7 14 -6 0 -13 -4 -16 -10z"/>
<path d="M3590 2210 c0 -5 5 -10 11 -10 5 0 7 5 4 10 -3 6 -8 10 -11 10 -2 0
-4 -4 -4 -10z"/>
<path d="M2276 2182 c-2 -4 4 -8 14 -8 10 0 16 4 14 8 -3 4 -9 8 -14 8 -5 0
-11 -4 -14 -8z"/>
<path d="M3640 2160 c8 -14 13 -29 12 -33 -1 -5 2 -5 8 -2 6 4 20 -1 31 -11
16 -14 17 -20 6 -33 -11 -14 -10 -15 7 -1 18 14 19 13 13 -2 -3 -10 -2 -18 3
-18 23 0 7 29 -42 76 -33 32 -47 40 -38 24z"/>
<path d="M3596 2158 c3 -5 10 -6 15 -3 13 9 11 12 -6 12 -8 0 -12 -4 -9 -9z"/>
<path d="M1574 2142 c3 -5 1 -12 -6 -14 -8 -3 -9 -6 -1 -11 6 -4 13 0 17 8 3
8 0 17 -6 21 -6 4 -8 3 -4 -4z"/>
<path d="M1519 2126 c-6 -5 -4 -58 2 -62 4 -2 6 5 4 16 -2 12 2 23 10 27 19 7
19 20 0 20 -8 0 -15 -1 -16 -1z"/>
<path d="M2335 2120 c3 -5 8 -10 11 -10 2 0 4 5 4 10 0 6 -5 10 -11 10 -5 0
-7 -4 -4 -10z"/>
<path d="M2373 2105 c0 -8 4 -15 9 -15 4 0 8 4 8 9 0 6 -4 12 -8 15 -5 3 -9
-1 -9 -9z"/>
<path d="M3655 2100 c-4 -6 1 -7 11 -3 13 5 15 3 9 -7 -5 -9 -4 -11 4 -6 6 4
9 12 6 17 -8 12 -22 12 -30 -1z"/>
<path d="M2410 2093 c5 -2 8 -9 4 -14 -3 -5 0 -9 6 -9 15 0 7 23 -8 26 -7 1
-8 0 -2 -3z"/>
<path d="M1490 2082 c0 -7 -3 -11 -7 -9 -5 1 -9 -2 -11 -8 -2 -5 1 -11 6 -13
11 -3 26 28 17 36 -3 3 -5 0 -5 -6z"/>
<path d="M3744 2061 c4 -5 0 -11 -6 -14 -7 -3 -3 -4 9 -4 17 1 19 4 11 14 -12
15 -22 18 -14 4z"/>
<path d="M2427 2047 c-3 -8 1 -14 8 -14 7 0 11 6 8 14 -3 7 -6 13 -8 13 -2 0
-5 -6 -8 -13z"/>
<path d="M3748 2023 c6 -2 10 -9 7 -14 -4 -5 1 -6 10 -2 13 5 14 7 3 14 -7 5
-17 8 -23 8 -5 0 -4 -3 3 -6z"/>
<path d="M1381 1989 c-13 -18 -19 -29 -12 -25 6 4 11 3 11 -2 0 -5 7 -9 16 -9
15 0 15 1 0 12 -8 7 -13 15 -9 18 3 4 13 1 22 -5 13 -10 14 -10 4 2 -19 21
-16 34 5 19 15 -13 16 -12 3 4 -7 9 -14 17 -15 17 -1 0 -13 -14 -25 -31z"/>
<path d="M2550 1960 c0 -5 5 -10 11 -10 5 0 7 5 4 10 -3 6 -8 10 -11 10 -2 0
-4 -4 -4 -10z"/>
<path d="M2550 1929 c0 -5 5 -7 10 -4 9 6 15 -8 11 -29 -1 -5 4 -4 13 3 10 8
16 9 21 1 3 -5 11 -10 18 -10 6 0 2 6 -8 14 -11 8 -23 12 -26 10 -4 -2 -9 3
-13 11 -6 17 -26 20 -26 4z"/>
<path d="M3835 1930 c-3 -6 1 -7 9 -4 18 7 21 14 7 14 -6 0 -13 -4 -16 -10z"/>
<path d="M1310 1922 c0 -5 -10 -13 -22 -19 -12 -5 -22 -19 -23 -31 -1 -11 2
-19 7 -16 5 4 7 12 4 19 -5 13 28 32 46 27 4 -1 5 5 2 13 -7 16 -14 20 -14 7z"/>
<path d="M1295 1880 c-3 -5 -1 -10 4 -10 6 0 11 5 11 10 0 6 -2 10 -4 10 -3 0
-8 -4 -11 -10z"/>
<path d="M2590 1880 c0 -6 7 -10 15 -10 8 0 15 2 15 4 0 2 -7 6 -15 10 -8 3
-15 1 -15 -4z"/>
<path d="M2630 1860 c0 -6 5 -8 12 -4 8 5 9 2 5 -9 -3 -10 -2 -17 4 -17 14 0
7 32 -8 38 -7 2 -13 -1 -13 -8z"/>
<path d="M2673 1825 c0 -8 4 -12 9 -9 8 5 12 -9 9 -36 -2 -13 0 -13 8 -1 6 10
6 21 0 32 -13 24 -26 31 -26 14z"/>
<path d="M2415 1820 c3 -5 8 -10 11 -10 2 0 4 5 4 10 0 6 -5 10 -11 10 -5 0
-7 -4 -4 -10z"/>
<path d="M2393 1805 c0 -8 4 -12 9 -9 5 3 6 10 3 15 -9 13 -12 11 -12 -6z"/>
<path d="M1317 1719 c7 -7 15 -10 18 -7 3 3 -2 9 -12 12 -14 6 -15 5 -6 -5z"/>
<path d="M2735 1721 c-3 -5 -2 -12 3 -15 5 -3 9 1 9 9 0 17 -3 19 -12 6z"/>
<path d="M2310 1699 c0 -5 5 -7 10 -4 6 3 10 8 10 11 0 2 -4 4 -10 4 -5 0 -10
-5 -10 -11z"/>
<path d="M1337 1687 c-4 -10 -2 -16 6 -14 7 1 11 -4 10 -10 -2 -7 1 -13 6 -13
6 0 9 9 8 19 0 11 -4 18 -8 15 -4 -2 -9 1 -11 8 -3 8 -7 6 -11 -5z"/>
<path d="M3753 1650 c5 -29 13 -33 13 -5 0 14 -4 25 -8 25 -4 0 -7 -9 -5 -20z"/>
<path d="M2833 1635 c0 -7 6 -11 14 -8 7 3 13 6 13 8 0 2 -6 5 -13 8 -8 3 -14
-1 -14 -8z"/>
<path d="M1403 1633 c4 -3 3 -11 -3 -17 -6 -8 -3 -12 10 -12 15 0 16 4 9 18
-5 10 -13 18 -16 18 -3 0 -3 -3 0 -7z"/>
<path d="M2309 1624 c-6 -7 -16 -11 -22 -7 -5 3 -7 2 -4 -4 4 -5 -12 -31 -35
-57 -29 -33 -44 -43 -49 -34 -5 8 -8 6 -7 -8 2 -24 -50 -92 -70 -93 -7 -1 -11
-5 -8 -9 6 -11 -30 -42 -39 -34 -4 4 -5 2 -3 -4 5 -16 -72 -105 -85 -97 -6 4
-7 1 -3 -6 5 -7 0 -21 -10 -32 -18 -20 -29 -53 -14 -44 16 10 38 -6 50 -36 12
-28 24 -34 63 -31 19 2 23 -14 5 -20 -8 -3 -7 -6 4 -10 11 -5 15 0 14 15 -1
15 -8 22 -21 23 -47 2 -48 3 -35 19 10 12 15 12 35 -1 13 -9 30 -12 36 -8 8 5
9 3 4 -6 -6 -10 -4 -12 8 -7 9 3 24 -1 33 -10 15 -15 14 -18 -6 -33 -17 -13
-20 -19 -10 -25 8 -5 11 -4 7 2 -14 22 28 24 45 3 26 -32 22 -15 -4 20 -22 31
-19 52 5 32 8 -7 18 -8 22 -4 5 4 5 1 1 -6 -4 -7 -12 -9 -18 -6 -7 4 -8 2 -4
-5 4 -6 12 -9 17 -5 16 10 54 14 64 6 6 -4 16 -19 22 -34 7 -16 18 -28 25 -28
9 0 9 3 -2 10 -8 5 -11 12 -7 16 3 4 14 1 22 -6 11 -9 19 -10 26 -3 10 10 7
11 -39 15 -29 3 -22 23 9 23 20 1 25 -3 21 -15 -4 -12 -3 -13 9 -4 11 9 74 12
74 4 0 -1 18 -3 40 -5 22 -1 49 -6 59 -10 12 -5 17 -5 13 2 -7 11 28 11 39 0
12 -12 26 -8 18 5 -4 7 -3 8 5 4 6 -4 9 -16 6 -27 -4 -11 -2 -19 5 -19 6 0 8
5 4 12 -5 7 -2 9 9 5 9 -3 18 -1 20 6 3 7 10 0 16 -15 6 -16 13 -28 16 -28 2
0 0 11 -5 24 -5 13 -6 26 -3 30 3 3 -6 3 -21 0 -14 -2 -26 -1 -26 4 0 4 17 8
38 7 20 0 40 4 43 8 3 5 9 2 12 -6 4 -11 0 -15 -13 -12 -14 3 -18 -2 -17 -16
1 -17 3 -18 12 -5 10 13 14 13 30 -2 15 -13 16 -13 7 -1 -12 16 -7 29 10 29 5
0 6 -5 2 -12 -4 -7 -3 -8 4 -4 6 4 9 14 6 24 -5 14 -4 14 6 -1 9 -14 9 -22 1
-30 -6 -6 -11 -16 -11 -21 0 -6 5 -3 11 7 8 14 14 16 25 6 9 -7 14 -8 14 -1 0
6 -6 12 -12 15 -7 2 -10 8 -6 12 4 4 14 2 22 -4 18 -15 32 -8 39 19 4 17 2 18
-14 9 -10 -5 -19 -7 -19 -4 0 3 -8 1 -18 -4 -13 -7 -19 -6 -19 2 0 7 7 13 16
13 9 0 29 3 45 8 22 5 27 4 23 -7 -3 -8 -1 -20 4 -28 7 -11 9 -11 9 -1 0 7 5
10 12 6 7 -4 8 -3 4 4 -4 7 -2 12 3 12 6 0 11 -7 11 -15 0 -8 4 -15 10 -15 5
0 7 6 4 14 -8 22 39 45 52 25 3 -5 11 -9 17 -9 7 0 6 4 -3 10 -8 5 -10 10 -5
11 6 1 21 2 35 4 56 5 56 5 38 16 -11 6 -24 6 -35 1 -10 -5 -26 -8 -36 -7 -9
2 -15 0 -12 -4 2 -4 -2 -8 -10 -8 -17 0 -21 16 -5 18 13 2 29 6 33 9 1 1 10 3
20 5 10 2 26 7 35 11 9 4 26 9 37 11 16 2 17 1 5 -6 -8 -5 -19 -7 -25 -4 -5 4
-1 -4 10 -18 11 -13 20 -25 21 -27 1 -2 4 4 8 13 3 9 2 13 -3 10 -5 -3 -12 -1
-16 5 -6 10 7 14 33 11 6 -1 12 3 12 9 0 6 -4 8 -10 5 -5 -3 -10 1 -10 9 0 19
12 20 29 4 10 -11 11 -10 6 4 -4 11 0 18 14 23 30 9 26 26 -16 67 -21 20 -43
42 -49 50 -6 7 -21 21 -33 31 -12 10 -19 23 -15 29 4 6 3 8 -3 5 -14 -9 -85
62 -76 76 3 5 1 7 -5 3 -14 -8 -44 22 -36 36 4 6 2 8 -4 4 -11 -7 -62 38 -62
54 0 6 -4 10 -10 10 -5 0 -23 14 -39 31 -27 27 -33 30 -72 24 -24 -4 -47 -9
-51 -11 -24 -15 -269 -4 -335 15 -24 7 -35 6 -44 -5z m-274 -453 c3 -5 1 -12
-4 -15 -5 -3 -11 1 -15 9 -6 16 9 21 19 6z m894 -67 c-8 -10 -15 -12 -22 -5
-7 7 -15 5 -24 -7 -13 -15 -13 -14 -3 6 6 12 15 20 20 17 5 -3 11 -1 15 5 4 6
11 8 16 4 6 -4 5 -11 -2 -20z m-179 -18 c0 -3 -4 -8 -10 -11 -5 -3 -10 -1 -10
4 0 6 5 11 10 11 6 0 10 -2 10 -4z m90 -18 c0 -4 -4 -8 -9 -8 -6 0 -12 4 -15
8 -3 5 1 9 9 9 8 0 15 -4 15 -9z"/>
<path d="M2870 1619 c0 -5 5 -7 10 -4 9 6 14 -8 11 -27 0 -5 4 -8 9 -8 13 0
13 6 0 31 -11 20 -30 26 -30 8z"/>
<path d="M2210 1600 c0 -5 5 -10 10 -10 6 0 10 5 10 10 0 6 -4 10 -10 10 -5 0
-10 -4 -10 -10z"/>
<path d="M1453 1573 c4 -3 -1 -12 -11 -20 -15 -13 -15 -13 6 -3 19 9 23 30 5
30 -4 0 -3 -3 0 -7z"/>
<path d="M2176 1568 c3 -4 11 -5 19 -1 21 7 19 12 -4 10 -11 0 -18 -5 -15 -9z"/>
<path d="M2914 1555 c3 -23 12 -26 13 -5 1 11 -2 20 -7 20 -4 0 -7 -7 -6 -15z"/>
<path d="M1480 1500 c-8 -5 -10 -10 -5 -10 6 0 17 5 25 10 8 5 11 10 5 10 -5
0 -17 -5 -25 -10z"/>
<path d="M2104 1499 c-5 -8 -3 -9 6 -4 7 4 16 2 22 -6 8 -12 9 -12 6 0 -6 20
-24 25 -34 10z"/>
<path d="M2993 1475 c0 -7 6 -11 14 -8 7 3 13 6 13 8 0 2 -6 5 -13 8 -8 3 -14
-1 -14 -8z"/>
<path d="M3030 1460 c0 -6 4 -9 9 -6 5 4 12 1 14 -4 3 -6 4 -5 3 2 -3 15 -26
23 -26 8z"/>
<path d="M2076 1415 c-11 -8 -15 -15 -9 -15 6 0 16 7 23 15 16 19 11 19 -14 0z"/>
<path d="M3050 1422 c0 -5 7 -9 15 -9 8 0 12 4 9 9 -3 4 -9 8 -15 8 -5 0 -9
-4 -9 -8z"/>
<path d="M3490 1399 c0 -5 -5 -7 -12 -3 -7 4 -8 3 -4 -4 4 -6 13 -9 21 -6 8 4
12 10 9 15 -7 12 -14 11 -14 -2z"/>
<path d="M2006 1381 c-3 -5 6 -8 20 -8 19 0 22 2 13 8 -18 11 -26 11 -33 0z"/>
<path d="M3520 1380 c-9 -6 -10 -10 -3 -10 6 0 15 5 18 10 8 12 4 12 -15 0z"/>
<path d="M3427 1356 c-3 -8 2 -20 11 -27 14 -11 15 -11 5 0 -6 7 -9 20 -6 27
3 8 3 14 0 14 -3 0 -7 -6 -10 -14z"/>
<path d="M1673 1325 c0 -8 4 -12 9 -9 5 3 6 10 3 15 -9 13 -12 11 -12 -6z"/>
<path d="M3154 1315 c3 -23 12 -26 13 -5 1 11 -2 20 -7 20 -4 0 -7 -7 -6 -15z"/>
<path d="M3383 1317 c0 -8 6 -14 14 -14 9 0 10 4 2 14 -6 7 -12 13 -14 13 -1
0 -2 -6 -2 -13z"/>
<path d="M3355 1310 c-3 -5 -1 -10 4 -10 6 0 11 5 11 10 0 6 -2 10 -4 10 -3 0
-8 -4 -11 -10z"/>
<path d="M1804 1271 c11 -12 25 -21 31 -21 7 0 16 -7 19 -16 4 -9 9 -14 13
-11 3 4 12 2 19 -4 8 -7 14 -6 20 2 4 7 3 9 -4 5 -6 -3 -13 -2 -16 3 -10 16
14 24 29 11 9 -7 15 -8 15 -2 0 5 -7 13 -16 16 -21 8 -20 8 -38 -10 -9 -8 -16
-11 -16 -6 0 6 -17 20 -37 32 -37 22 -38 22 -19 1z"/>
<path d="M1933 1275 c0 -8 4 -12 9 -9 5 3 6 10 3 15 -9 13 -12 11 -12 -6z"/>
<path d="M3239 1260 c-8 -6 -8 -9 0 -14 6 -4 11 -2 11 4 0 6 4 9 9 5 5 -3 12
-2 15 3 6 10 -19 11 -35 2z"/>
<path d="M3296 1247 c3 -10 9 -15 12 -12 3 3 0 11 -7 18 -10 9 -11 8 -5 -6z"/>
<path d="M1795 1240 c-3 -5 -1 -10 4 -10 6 0 11 5 11 10 0 6 -2 10 -4 10 -3 0
-8 -4 -11 -10z"/>
<path d="M3325 1240 c-3 -6 1 -7 9 -4 18 7 21 14 7 14 -6 0 -13 -4 -16 -10z"/>
<path d="M3256 1231 c-4 -5 3 -7 14 -4 23 6 26 13 6 13 -8 0 -17 -4 -20 -9z"/>
<path d="M2121 1114 c-7 -8 -10 -18 -6 -22 4 -4 10 -1 12 6 3 6 9 10 14 7 5
-4 6 1 3 9 -7 19 -6 19 -23 0z"/>
<path d="M2038 1103 c7 -3 16 -2 19 1 4 3 -2 6 -13 5 -11 0 -14 -3 -6 -6z"/>
<path d="M2224 1088 c-3 -5 -1 -15 5 -22 6 -7 9 -16 6 -20 -3 -3 1 -1 8 5 9 9
9 12 0 16 -20 7 -15 19 8 20 12 1 19 -1 15 -4 -3 -3 -1 -12 5 -20 9 -10 8 -13
-1 -13 -8 0 -11 -3 -7 -6 11 -11 29 7 18 19 -5 7 -10 17 -10 22 -1 13 -40 15
-47 3z"/>
<path d="M2948 1083 c7 -3 16 -2 19 1 4 3 -2 6 -13 5 -11 0 -14 -3 -6 -6z"/>
<path d="M2380 1065 c8 -9 7 -14 -2 -18 -7 -2 -9 -8 -5 -13 9 -10 28 16 21 28
-3 4 -1 8 4 8 5 0 14 -10 20 -22 9 -19 11 -20 11 -5 1 10 5 16 10 12 5 -3 13
-1 16 5 4 6 3 10 -2 9 -4 -1 -10 0 -13 1 -3 1 -20 3 -38 5 -25 2 -30 -1 -22
-10z"/>
<path d="M2465 1049 c-4 -11 -4 -23 -1 -26 3 -4 6 1 6 10 0 10 5 17 10 17 6 0
10 -7 10 -17 0 -9 3 -14 6 -10 8 8 -5 47 -16 47 -5 0 -12 -9 -15 -21z"/>
<path d="M2507 1059 c7 -7 15 -10 18 -7 3 3 -2 9 -12 12 -14 6 -15 5 -6 -5z"/>
<path d="M2570 1059 c0 -5 -4 -8 -9 -5 -5 3 -14 -1 -21 -9 -9 -11 -9 -15 -1
-15 7 0 9 -6 6 -12 -4 -7 2 -3 13 9 11 12 23 19 26 15 4 -3 4 1 0 11 -7 19
-14 22 -14 6z"/>
<path d="M2576 1022 c-2 -4 4 -8 14 -8 10 0 16 4 14 8 -3 4 -9 8 -14 8 -5 0
-11 -4 -14 -8z"/>
<path d="M4519 4638 c-5 -18 -6 -38 -1 -34 7 8 12 36 6 36 -2 0 -4 -1 -5 -2z"/>
<path d="M4396 4578 c3 -4 11 -5 19 -1 21 7 19 12 -4 10 -11 0 -18 -5 -15 -9z"/>
<path d="M4415 4560 c-3 -6 1 -7 9 -4 18 7 21 14 7 14 -6 0 -13 -4 -16 -10z"/>
<path d="M390 4511 c0 -7 -5 -9 -12 -5 -7 5 -8 3 -3 -5 5 -9 10 -10 18 -2 6 6
8 14 4 18 -4 3 -7 1 -7 -6z"/>
<path d="M396 4482 c-3 -4 4 -9 15 -9 23 -2 25 3 4 10 -8 4 -16 3 -19 -1z"/>
<path d="M4176 4461 c-4 -7 -14 -10 -22 -7 -7 3 -16 0 -20 -7 -4 -7 -4 -9 1
-5 11 11 47 -11 39 -24 -4 -7 -2 -8 5 -4 9 6 9 11 -1 24 -11 13 -10 15 4 9 10
-3 20 -1 24 5 4 6 3 8 -4 4 -5 -3 -12 -1 -14 6 -3 9 -6 9 -12 -1z"/>
<path d="M4106 4418 c6 -9 44 -6 44 3 0 4 -11 6 -24 5 -13 0 -22 -4 -20 -8z"/>
<path d="M470 4390 c0 -5 5 -10 11 -10 5 0 7 5 4 10 -3 6 -8 10 -11 10 -2 0
-4 -4 -4 -10z"/>
<path d="M1170 4380 c0 -5 5 -10 11 -10 5 0 7 5 4 10 -3 6 -8 10 -11 10 -2 0
-4 -4 -4 -10z"/>
<path d="M3990 4360 c0 -6 -3 -9 -7 -8 -5 2 -23 -3 -40 -11 -30 -12 -35 -18
-32 -37 0 -3 -7 -17 -16 -32 l-16 -27 19 22 c11 12 23 19 28 15 5 -4 3 0 -4 9
-10 13 -9 19 2 29 9 6 21 8 28 4 17 -11 38 -14 37 -6 -4 26 2 32 21 22 11 -6
20 -9 20 -8 0 2 -9 11 -20 21 -11 9 -20 12 -20 7z m-15 -29 c-3 -6 -11 -8 -17
-5 -6 4 -5 9 3 15 16 10 23 4 14 -10z"/>
<path d="M530 4261 c0 -5 11 -8 25 -8 30 0 28 6 -4 12 -11 2 -21 0 -21 -4z"/>
<path d="M589 4218 c7 -9 9 -23 5 -30 -6 -10 -4 -11 7 0 11 10 10 15 -6 30
-17 15 -18 15 -6 0z"/>
<path d="M613 4166 c0 -8 3 -15 6 -14 19 2 24 -4 11 -12 -9 -6 -10 -10 -3 -10
21 0 23 17 4 34 -14 13 -18 14 -18 2z"/>
<path d="M3830 4139 c0 -5 5 -7 10 -4 6 3 10 8 10 11 0 2 -4 4 -10 4 -5 0 -10
-5 -10 -11z"/>
<path d="M653 4123 c4 -3 1 -13 -6 -22 -10 -14 -10 -14 5 -3 14 11 17 10 23
-7 3 -12 11 -21 16 -21 6 0 1 14 -11 30 -12 17 -24 30 -27 30 -4 0 -3 -3 0 -7z"/>
<path d="M720 4023 c5 -2 10 -11 10 -18 0 -8 4 -17 10 -20 6 -4 7 2 1 16 -4
13 -13 24 -20 25 -6 1 -7 0 -1 -3z"/>
<path d="M787 3984 c3 -8 10 -13 15 -12 16 6 14 21 -4 24 -11 1 -15 -3 -11
-12z"/>
<path d="M915 3930 c-3 -6 1 -7 9 -4 18 7 21 14 7 14 -6 0 -13 -4 -16 -10z"/>
<path d="M950 3920 c0 -5 7 -7 15 -4 8 4 15 8 15 10 0 2 -7 4 -15 4 -8 0 -15
-4 -15 -10z"/>
<path d="M1014 3908 c-4 -7 -4 -10 1 -6 4 4 14 0 22 -10 13 -15 13 -15 3 6
-12 25 -16 27 -26 10z"/>
<path d="M4827 3831 c-4 -17 -3 -21 5 -13 5 5 8 16 6 23 -3 8 -7 3 -11 -10z"/>
<path d="M4775 3699 c-3 -4 2 -6 10 -5 21 3 28 13 10 13 -9 0 -18 -4 -20 -8z"/>
<path d="M4735 3511 c-3 -5 -2 -12 3 -15 5 -3 9 1 9 9 0 17 -3 19 -12 6z"/>
<path d="M364 3479 c-4 -7 -3 -9 4 -5 5 3 13 0 15 -6 4 -9 6 -10 6 -1 1 17
-16 25 -25 12z"/>
<path d="M4705 3440 c3 -5 8 -10 11 -10 2 0 4 5 4 10 0 6 -5 10 -11 10 -5 0
-7 -4 -4 -10z"/>
<path d="M4676 3422 c-3 -5 1 -9 9 -9 8 0 12 4 9 9 -3 4 -7 8 -9 8 -2 0 -6 -4
-9 -8z"/>
<path d="M433 3405 c0 -8 4 -12 9 -9 5 3 6 10 3 15 -9 13 -12 11 -12 -6z"/>
<path d="M4603 3390 c-8 -12 -9 -21 -3 -25 6 -4 9 -1 8 7 -2 7 5 12 15 12 14
-2 15 1 6 12 -14 17 -12 18 -26 -6z"/>
<path d="M583 3333 c-7 -3 -13 -8 -13 -13 0 -10 24 -7 28 4 5 11 -1 14 -15 9z"/>
<path d="M616 3314 c-4 -9 -4 -19 -1 -22 3 -3 5 1 5 9 0 12 2 12 10 -1 5 -8
11 -12 14 -10 2 3 -1 13 -9 23 -12 16 -13 16 -19 1z"/>
<path d="M630 3246 c0 -2 7 -7 16 -10 8 -3 12 -2 9 4 -6 10 -25 14 -25 6z"/>
<path d="M182 2280 c0 -3 -1 -7 -2 -10 -9 -25 -6 -38 8 -32 12 4 13 7 3 10
-10 3 -8 9 8 21 21 16 21 17 2 17 -11 0 -19 -3 -19 -6z"/>
<path d="M344 2261 c0 -11 6 -17 13 -14 9 4 11 0 7 -13 -4 -11 -4 -16 0 -13 4
4 9 17 11 29 2 12 2 20 -2 16 -3 -3 -11 -2 -17 4 -8 6 -12 3 -12 -9z"/>
<path d="M4774 2265 c-4 -8 -10 -15 -16 -15 -5 0 -6 6 -2 13 5 8 2 8 -9 -2
-26 -21 -21 -28 22 -27 22 0 37 4 35 8 -3 4 -12 4 -20 1 -14 -5 -15 -3 -5 15
7 12 9 22 6 22 -3 0 -8 -7 -11 -15z"/>
<path d="M4694 2258 c-3 -5 -9 -6 -14 -3 -4 3 -13 -2 -20 -11 -10 -11 -15 -12
-20 -3 -4 6 -7 0 -7 -15 0 -14 3 -26 8 -26 5 0 8 6 7 13 -2 6 4 12 12 12 8 0
14 -6 12 -13 -1 -8 2 -11 9 -7 8 5 8 10 0 18 -17 17 -13 31 4 17 9 -7 17 -11
18 -9 1 2 8 11 15 20 9 13 9 16 -4 16 -8 0 -17 -4 -20 -9z"/>
<path d="M4955 2261 c-3 -5 -2 -12 3 -15 5 -3 9 1 9 9 0 17 -3 19 -12 6z"/>
<path d="M4552 2240 c0 -3 -1 -7 -2 -10 -8 -21 -6 -37 6 -37 9 0 11 4 4 12 -5
7 -7 15 -3 18 3 4 12 -2 20 -13 8 -11 20 -20 26 -19 9 0 8 2 -1 6 -6 2 -9 10
-6 15 4 7 2 8 -4 4 -7 -4 -12 -3 -12 3 0 19 19 21 29 4 9 -16 10 -16 8 2 -1
16 -8 21 -33 21 -18 0 -32 -3 -32 -6z"/>
<path d="M4835 2239 c-4 -6 -4 -13 -1 -16 3 -4 6 -1 6 6 0 7 5 9 10 6 6 -3 10
-1 10 4 0 14 -17 14 -25 0z"/>
<path d="M413 2215 c0 -8 4 -12 9 -9 5 3 6 10 3 15 -9 13 -12 11 -12 -6z"/>
<path d="M655 1860 c3 -5 8 -10 11 -10 2 0 4 5 4 10 0 6 -5 10 -11 10 -5 0 -7
-4 -4 -10z"/>
<path d="M4673 1305 c0 -8 4 -12 9 -9 5 3 6 10 3 15 -9 13 -12 11 -12 -6z"/>
<path d="M4122 1277 c-10 -11 -9 -17 5 -28 14 -11 15 -12 9 0 -7 10 -4 12 12
7 23 -8 39 8 21 20 -8 4 -9 3 -5 -4 11 -18 -5 -14 -18 4 -11 14 -14 14 -24 1z"/>
<path d="M903 1243 c-12 -17 -19 -21 -28 -13 -9 8 -15 8 -20 0 -3 -6 -11 -8
-16 -5 -5 4 -9 1 -9 -6 0 -7 -3 -9 -6 -6 -12 12 -43 -13 -37 -29 5 -14 8 -12
19 7 7 13 13 19 14 13 0 -7 8 -15 17 -18 10 -4 14 -4 11 0 -12 11 12 45 25 37
7 -4 23 -8 37 -9 14 -1 17 0 8 2 -10 3 -15 11 -11 20 3 8 10 11 17 6 16 -10
66 -10 66 0 0 5 -6 8 -12 7 -25 -3 -39 1 -34 9 13 21 -27 6 -41 -15z"/>
<path d="M1007 1256 c-4 -9 -1 -18 5 -22 7 -4 8 -3 4 4 -4 7 -3 12 3 12 5 0
12 -6 14 -12 4 -8 6 -9 6 -2 1 6 -5 17 -13 23 -10 9 -15 8 -19 -3z"/>
<path d="M4094 1253 c3 -6 -2 -16 -11 -22 -10 -6 -13 -10 -8 -11 6 0 17 5 25
10 13 8 13 11 1 22 -9 8 -12 9 -7 1z"/>
<path d="M4233 1224 c0 -23 1 -24 9 -10 7 12 7 21 0 28 -6 6 -9 0 -9 -18z"/>
<path d="M4198 1223 c7 -3 16 -2 19 1 4 3 -2 6 -13 5 -11 0 -14 -3 -6 -6z"/>
<path d="M1060 1204 c0 -13 18 -39 24 -34 2 3 -2 14 -10 24 -8 11 -14 16 -14
10z"/>
<path d="M4050 1205 c0 -7 30 -13 34 -7 3 4 -4 9 -15 9 -10 1 -19 0 -19 -2z"/>
<path d="M723 1177 c-4 -7 -9 -21 -10 -32 -2 -16 -1 -17 6 -5 5 8 7 18 5 22
-3 4 8 6 25 4 19 -2 28 1 25 8 -6 16 -42 18 -51 3z"/>
<path d="M4031 1176 c-16 -19 3 -31 26 -16 15 9 14 10 -7 5 -24 -6 -24 -5 -6
9 11 9 15 16 9 16 -6 0 -16 -6 -22 -14z"/>
<path d="M4375 1180 c-3 -6 -1 -10 6 -10 8 0 8 -4 -1 -15 -18 -21 -9 -25 11
-5 12 13 13 19 3 28 -8 8 -15 8 -19 2z"/>
<path d="M4595 1180 c3 -5 8 -10 11 -10 2 0 4 5 4 10 0 6 -5 10 -11 10 -5 0
-7 -4 -4 -10z"/>
<path d="M806 1163 c-6 -14 -5 -15 5 -6 7 7 10 15 7 18 -3 3 -9 -2 -12 -12z"/>
<path d="M4296 1167 c3 -10 9 -15 12 -12 3 3 0 11 -7 18 -10 9 -11 8 -5 -6z"/>
<path d="M676 1161 c-4 -5 -2 -12 4 -16 5 -3 10 -11 10 -16 0 -6 -5 -7 -12 -3
-7 4 -8 3 -4 -5 11 -16 26 -3 23 19 -4 25 -13 34 -21 21z"/>
<path d="M4416 1155 c-3 -10 1 -18 12 -21 9 -3 25 -10 36 -15 13 -7 16 -7 11
0 -3 6 -3 11 0 11 9 0 35 -27 30 -31 -2 -2 9 -5 23 -6 l27 -1 -25 13 c-14 7
-25 17 -25 21 0 11 -22 16 -57 15 -20 0 -26 4 -21 14 3 8 3 15 0 15 -3 0 -8
-7 -11 -15z"/>
<path d="M1076 1143 c-6 -14 -5 -15 5 -6 7 7 10 15 7 18 -3 3 -9 -2 -12 -12z"/>
<path d="M735 1140 c-3 -6 1 -7 9 -4 18 7 21 14 7 14 -6 0 -13 -4 -16 -10z"/>
<path d="M1110 1138 c-12 -8 -12 -9 2 -4 10 3 20 1 23 -4 3 -5 -3 -11 -12 -13
-16 -4 -16 -5 -1 -6 22 -1 31 14 15 27 -9 8 -17 8 -27 0z"/>
<path d="M4550 1141 c0 -6 5 -13 12 -17 6 -4 8 -3 4 4 -3 5 0 13 6 15 8 3 6 6
-4 6 -10 1 -18 -3 -18 -8z"/>
<path d="M4390 1136 c0 -2 8 -10 18 -17 15 -13 16 -12 3 4 -13 16 -21 21 -21
13z"/>
<path d="M596 1115 c-11 -8 -17 -17 -14 -20 2 -3 13 4 23 15 21 23 18 25 -9 5z"/>
<path d="M3976 1121 c-3 -4 6 -13 19 -19 30 -14 31 -12 5 10 -10 10 -22 14
-24 9z"/>
<path d="M650 1099 c0 -5 5 -7 10 -4 6 3 10 8 10 11 0 2 -4 4 -10 4 -5 0 -10
-5 -10 -11z"/>
<path d="M4434 1102 c4 -3 14 -7 22 -8 9 -1 13 0 10 4 -4 3 -14 7 -22 8 -9 1
-13 0 -10 -4z"/>
<path d="M3917 1070 c-8 -11 -16 -17 -20 -14 -3 3 -10 -3 -16 -15 -8 -14 -8
-22 1 -27 7 -5 8 -3 3 6 -6 10 -4 12 9 7 10 -4 15 -3 11 3 -3 6 1 13 9 16 9 3
13 11 9 17 -4 6 0 8 10 4 11 -4 14 -2 10 9 -7 18 -9 18 -26 -6z"/>
<path d="M1190 1060 c-9 -6 -10 -10 -3 -10 6 0 15 5 18 10 8 12 4 12 -15 0z"/>
<path d="M1230 1038 c0 -9 5 -20 10 -23 13 -8 13 5 0 25 -8 13 -10 13 -10 -2z"/>
<path d="M1210 999 c0 -5 5 -7 10 -4 6 3 10 8 10 11 0 2 -4 4 -10 4 -5 0 -10
-5 -10 -11z"/>
<path d="M3834 984 c3 -22 22 -38 31 -25 3 6 3 11 -2 10 -19 -3 -27 2 -15 10
11 7 11 9 -1 14 -9 3 -14 0 -13 -9z"/>
<path d="M4206 889 c-33 -26 -35 -70 -4 -99 42 -39 98 -19 113 42 5 21 1 33
-19 52 -31 31 -55 33 -90 5z m87 -20 c8 -11 12 -29 10 -40 -13 -47 -85 -58
-100 -15 -11 33 -10 40 5 59 21 24 67 22 85 -4z"/>
<path d="M4219 869 c-1 -5 -1 -18 -1 -29 0 -34 2 -40 13 -40 5 0 8 4 4 9 -3 5
-1 12 4 15 5 3 11 -1 15 -9 3 -8 9 -15 14 -15 9 0 13 69 4 71 -30 6 -52 5 -53
-2z m41 -13 c0 -3 -4 -8 -10 -11 -5 -3 -10 -1 -10 4 0 6 5 11 10 11 6 0 10 -2
10 -4z"/>
<path d="M1812 645 c-18 -20 -32 -39 -32 -43 0 -4 16 11 36 33 27 31 34 35 29
18 -4 -13 -2 -23 4 -23 18 0 24 22 9 37 -13 12 -19 10 -46 -22z"/>
<path d="M3242 653 c-12 -14 -27 -21 -33 -17 -8 4 -9 3 -5 -5 6 -9 14 -8 33 4
24 16 25 16 19 -7 -4 -17 -2 -16 6 5 7 15 16 27 21 27 4 0 5 -5 1 -12 -4 -6
-3 -8 4 -4 6 3 13 -3 17 -14 3 -11 11 -20 16 -20 13 0 -20 49 -40 60 -12 6
-23 1 -39 -17z"/>
<path d="M3153 627 c-3 -6 -1 -7 5 -3 7 4 12 3 12 -3 0 -17 -20 -23 -26 -7 -3
9 -12 12 -21 9 -13 -5 -11 -8 8 -16 33 -14 49 -16 48 -9 -3 21 3 23 23 6 l22
-19 -19 26 c-20 26 -41 33 -52 16z"/>
<path d="M1827 619 c7 -7 15 -10 18 -7 3 3 -2 9 -12 12 -14 6 -15 5 -6 -5z"/>
<path d="M3276 622 c-3 -5 1 -9 9 -9 8 0 12 4 9 9 -3 4 -7 8 -9 8 -2 0 -6 -4
-9 -8z"/>
<path d="M3101 590 c-9 -5 -4 -7 13 -7 29 0 32 2 13 10 -8 3 -20 2 -26 -3z"/>
<path d="M3317 593 c-4 -6 0 -13 8 -17 8 -3 17 0 21 6 4 6 3 8 -4 4 -5 -3 -12
-1 -14 6 -3 8 -6 9 -11 1z"/>
<path d="M1760 575 c-11 -13 -11 -18 0 -28 10 -10 11 -9 5 2 -5 9 -1 19 10 28
11 7 14 13 8 13 -6 0 -16 -7 -23 -15z"/>
<path d="M2102 570 c-6 -11 -7 -22 -1 -31 8 -11 9 -10 7 5 -2 10 3 21 11 24 8
3 11 0 7 -7 -4 -6 -3 -11 3 -11 5 0 9 8 8 18 -1 23 -21 24 -35 2z"/>
<path d="M2947 583 c-4 -3 -22 -7 -39 -8 -18 -1 -34 -7 -36 -14 -3 -9 5 -11
26 -8 17 3 32 1 34 -5 2 -6 9 1 16 16 12 26 11 32 -1 19z"/>
<path d="M3349 563 c-13 -16 -12 -17 4 -4 16 13 21 21 13 21 -2 0 -10 -8 -17
-17z"/>
<path d="M1786 558 c3 -5 10 -6 15 -3 13 9 11 12 -6 12 -8 0 -12 -4 -9 -9z"/>
<path d="M3080 560 c-8 -5 -10 -10 -5 -10 6 0 17 5 25 10 8 5 11 10 5 10 -5 0
-17 -5 -25 -10z"/>
<path d="M2955 549 c-4 -6 -5 -12 -2 -15 2 -3 7 2 10 11 7 17 1 20 -8 4z"/>
<path d="M2871 537 c2 -2 11 -8 20 -15 12 -9 16 -9 16 1 0 7 -9 14 -20 14 -11
1 -18 1 -16 0z"/>
<path d="M2210 519 c0 -5 5 -7 10 -4 6 3 10 8 10 11 0 2 -4 4 -10 4 -5 0 -10
-5 -10 -11z"/>
<path d="M3393 505 c0 -7 4 -13 8 -12 4 1 15 -7 24 -18 16 -20 16 -20 6 1 -14
30 -38 48 -38 29z"/>
<path d="M1245 480 c-3 -5 -1 -10 5 -10 6 0 8 -5 4 -12 -4 -7 -3 -8 4 -4 6 4
9 13 5 21 -6 18 -10 19 -18 5z"/>
<path d="M3843 476 c-4 -6 -8 -20 -10 -31 -1 -11 1 -14 3 -7 3 6 10 10 14 7 5
-3 12 -1 15 5 4 6 3 10 -2 9 -20 -3 -27 2 -14 10 9 6 22 6 31 1 12 -6 17 -5
17 4 0 16 -45 18 -54 2z"/>
<path d="M3434 444 c-10 -8 -13 -13 -6 -9 7 4 21 1 30 -7 15 -11 15 -11 5 3
-7 9 -10 19 -6 22 13 13 -4 7 -23 -9z"/>
<path d="M3795 440 c-10 -11 -22 -17 -27 -14 -12 7 -39 -16 -32 -27 9 -15 26
-10 20 6 -3 8 -1 15 4 15 6 0 10 -6 10 -14 0 -8 4 -17 9 -20 5 -4 7 4 3 16
l-5 23 24 -20 c22 -19 23 -19 9 -1 -14 18 -13 19 5 13 18 -6 19 -6 3 6 -13 11
-15 16 -6 25 7 7 10 12 7 12 -3 0 -14 -9 -24 -20z"/>
<path d="M1275 420 c3 -5 8 -10 11 -10 2 0 4 5 4 10 0 6 -5 10 -11 10 -5 0 -7
-4 -4 -10z"/>
<path d="M1335 410 c-3 -5 -1 -18 5 -27 9 -15 10 -14 4 6 -4 17 -3 21 6 16 9
-5 11 -4 6 3 -9 15 -13 15 -21 2z"/>
<path d="M3500 370 c-9 -6 -10 -10 -3 -10 6 0 15 5 18 10 8 12 4 12 -15 0z"/>
<path d="M3725 372 c-10 -7 -18 -32 -10 -32 2 0 9 9 15 20 12 22 11 24 -5 12z"/>
<path d="M1462 365 c4 -4 3 -14 -4 -22 -9 -11 -8 -13 3 -11 9 2 13 -4 12 -17
-1 -19 -1 -19 11 -2 19 24 29 21 16 -5 -10 -21 -10 -22 3 -5 10 12 17 14 22 8
3 -6 12 -11 18 -11 8 0 8 3 -1 9 -8 4 -13 12 -13 17 1 5 -2 9 -6 9 -5 0 -14 4
-20 8 -8 5 -13 4 -13 -3 0 -6 -5 -8 -10 -5 -6 4 -8 10 -5 15 3 5 0 12 -7 16
-7 4 -10 4 -6 -1z"/>
<path d="M1584 346 c-19 -15 -19 -15 2 -13 11 0 21 7 21 14 0 16 1 16 -23 -1z"/>
<path d="M3627 353 c-14 -13 -7 -23 16 -22 17 1 18 2 4 6 -9 2 -15 9 -12 14 7
10 1 12 -8 2z"/>
<path d="M3593 338 c-4 -7 -8 -17 -9 -23 -1 -5 -5 -19 -9 -30 -6 -19 -5 -18 7
1 7 12 20 19 28 17 10 -3 11 -2 4 4 -6 4 -10 16 -8 26 3 20 -2 22 -13 5z"/>
<path d="M3515 320 c3 -5 8 -10 11 -10 2 0 4 5 4 10 0 6 -5 10 -11 10 -5 0 -7
-4 -4 -10z"/>
<path d="M3546 322 c-3 -5 1 -9 9 -9 8 0 12 4 9 9 -3 4 -7 8 -9 8 -2 0 -6 -4
-9 -8z"/>
<path d="M2368 101 c3 -8 1 -12 -4 -8 -6 3 -16 2 -23 -2 -9 -6 -10 -11 -2 -15
6 -4 11 -1 11 6 0 10 2 10 9 -1 7 -11 10 -9 16 8 3 12 11 19 16 15 6 -3 5 -12
-3 -22 -7 -10 0 -6 15 7 27 24 38 17 15 -8 -9 -9 -9 -12 -1 -7 6 3 13 3 16 -1
2 -5 2 -2 0 6 -2 8 2 11 11 8 9 -4 13 0 12 11 -2 12 -14 17 -48 17 -36 1 -45
-2 -40 -14z"/>
<path d="M2654 106 c-4 -11 -10 -13 -18 -8 -15 12 -45 11 -43 -1 1 -5 -4 -12
-11 -14 -8 -3 -10 2 -6 14 5 15 4 16 -5 3 -7 -9 -14 -11 -18 -5 -11 13 -36 18
-28 5 3 -5 1 -10 -5 -10 -6 0 -8 -5 -4 -11 5 -8 9 -8 14 1 6 9 16 8 41 -5 19
-10 31 -14 27 -10 -9 10 10 35 26 35 6 0 4 -4 -4 -10 -8 -5 -11 -12 -7 -17 5
-4 11 -3 15 3 14 19 77 1 65 -20 -3 -6 -2 -7 3 -3 9 8 10 12 13 39 0 6 4 8 8
5 3 -4 13 -1 21 6 13 10 14 8 8 -13 l-7 -25 14 24 c10 16 16 20 19 11 3 -11 6
-11 10 1 5 12 -3 15 -41 14 -37 -1 -46 -4 -45 -18 1 -10 -3 -16 -10 -14 -6 2
-11 9 -11 15 0 19 -14 25 -21 8z"/>
<path d="M2479 106 c0 -1 -2 -9 -4 -18 -4 -23 7 -23 22 0 9 15 8 19 -3 19 -8
0 -14 -1 -15 -1z"/>
<path d="M2793 85 c0 -8 4 -12 9 -9 5 3 6 10 3 15 -9 13 -12 11 -12 -6z"/>
<path d="M2496 62 c-3 -4 4 -9 15 -9 23 -2 25 3 4 10 -8 4 -16 3 -19 -1z"/>
</g>
</svg>
